<svg xmlns="http://www.w3.org/2000/svg" viewBox="0 0 14.196 15.773">
  <defs>
    <style>
      .cls-1 {
        fill: #474747;
      }
    </style>
  </defs>
  <path id="ic_assignment_ind_24px" class="cls-1" d="M15.619,2.577h-3.3a2.357,2.357,0,0,0-4.448,0h-3.3A1.582,1.582,0,0,0,3,4.155V15.2a1.582,1.582,0,0,0,1.577,1.577H15.619A1.582,1.582,0,0,0,17.2,15.2V4.155A1.582,1.582,0,0,0,15.619,2.577Zm-5.521,0a.789.789,0,1,1-.789.789A.791.791,0,0,1,10.1,2.577Zm0,3.155A2.366,2.366,0,1,1,7.732,8.1,2.363,2.363,0,0,1,10.1,5.732ZM14.83,15.2H5.366v-1.1c0-1.577,3.155-2.445,4.732-2.445s4.732.868,4.732,2.445Z" transform="translate(-3 -1)"/>
</svg>
