<?xml version="1.0" standalone="no"?>
<!DOCTYPE svg PUBLIC "-//W3C//DTD SVG 1.1//EN" "http://www.w3.org/Graphics/SVG/1.1/DTD/svg11.dtd" >
<svg xmlns="http://www.w3.org/2000/svg">
<metadata></metadata>
<defs>
<font id="thaisans_neueultra_bold" horiz-adv-x="0" >
<font-face units-per-em="2048" ascent="1569" descent="-479" />
<missing-glyph horiz-adv-x="659" />
<glyph unicode="&#x3b;&#x3b;arm&#x3b;&#x3b;" horiz-adv-x="2138" d="M76 1270v82h327v164q-23 0 -45 13t-39.5 35.5t-27.5 52.5t-10 62q0 37 14 67t36.5 51.5t52.5 33.5t60 12q78 0 121 -43t43 -121q0 -27 -8 -55.5t-23.5 -52t-38 -38.5t-53.5 -17v-164h328v-82h-328v-246l220 -492h-82l-179 410l-178 -410h-82l219 492v246h-327zM158 0 q0 23 8 48.5t25.5 47t44 34.5t65.5 13q61 0 102 -41t41 -102q0 -14 -7 -51t-48 -66l45 -209l113 226h41l112 -226l72 428h102l-32 -172l22 41l133 31q0 106 12.5 181t37 120t63.5 65.5t92 20.5q61 0 92 -41t31 -102h-41q0 31 -15.5 56.5t-45.5 25.5q-78 0 -111 -76t-33 -229 l150 36l18 -75l-168 -43v-82q0 -123 -6 -224.5t-29.5 -175t-68.5 -113.5t-121 -40q-61 0 -102 30.5t-41 92.5h41q0 -31 25.5 -46.5t56.5 -15.5q61 0 94 37t48 101.5t18 154.5t3 199v61l-163 -41l-70 -368h-53l-144 307l-143 -307h-53l-66 327l37 25q-4 -2 -12 -2 q-8 -2 -29 -2q-18 0 -44 7t-47.5 23.5t-36.5 43t-15 67.5zM240 0q0 -23 15 -41t46 -18q61 0 61 59q0 61 -61 61q-31 0 -46 -18t-15 -43zM362 1679q0 -31 17.5 -56.5t64.5 -25.5t64.5 26t17.5 56q0 47 -25.5 64.5t-56.5 17.5t-56.5 -17.5t-25.5 -64.5zM834 532l466 1270h353 l409 -1270h-327l-125 390h-551l-144 -390h-81zM1100 1024h475l-223 696zM1364 41l41 205h61l-61 -205h-41zM1421 1741l27 -80l47 80h-74zM1462 1624l17 -57l106 174h-51zM1466 41l41 205h62l-62 -205h-41zM1493 1528l23 -74l114 193l-22 69zM1536 1393l12 -41l115 190 l-12 41zM1565 1303l12 -41l115 190l-13 41zM1591 -203q0 76 18.5 146.5t51.5 124t78 86t98 32.5q109 0 167 -74.5t58 -211.5q0 -201 -71.5 -295t-194.5 -94q-39 0 -76 16t-65.5 50t-46 88t-17.5 132zM1595 1208l13 -41l114 189l-14 43zM1622 1126l14 -49l115 191l-14 49z M1651 1032l14 -41l113 191l-11 41zM1673 -162l287 123q-4 39 -16 70q-12 27 -36 49t-71 22q-53 0 -86 -42t-49 -91q-20 -57 -29 -131zM1673 -264q0 -23 7.5 -48.5t22.5 -47t38.5 -35t54.5 -13.5q61 0 94 41t49 93q18 57 21 133zM1679 940l13 -33l114 187l-10 39zM1706 860 l12 -33l115 189l-12 35zM1733 778l12 -39l117 187l-13 43zM1759 696l15 -47l114 193l-14 45zM1786 614l6 -20h27l96 162l-14 49zM1851 594h41l50 84l-15 41zM1925 594h41l-14 45z" />
<glyph unicode="&#xd;" horiz-adv-x="659" />
<glyph unicode=" "  horiz-adv-x="659" />
<glyph unicode="&#x09;" horiz-adv-x="659" />
<glyph unicode="&#xa0;" horiz-adv-x="659" />
<glyph unicode="!" horiz-adv-x="387" d="M76 0v231h235v-231h-235zM76 322v835h235v-835h-235z" />
<glyph unicode="&#x22;" horiz-adv-x="694" d="M76 737v418h225v-418h-225zM393 737v418h225v-418h-225z" />
<glyph unicode="#" horiz-adv-x="1265" d="M76 295l57 209h156l28 100h-155l51 209h162l76 281h235l-76 -281h168l78 281h236l-78 -281h176l-57 -209h-175l-28 -100h178l-61 -209h-175l-79 -295h-236l80 295h-168l-82 -295h-235l79 295h-155zM524 504h170l29 100h-170z" />
<glyph unicode="$" horiz-adv-x="919" d="M76 86v195q53 -27 112 -48q49 -16 110.5 -30.5t121.5 -14.5q55 0 92 13.5t58.5 35t29.5 46t8 49.5q0 53 -40 82.5t-98 52t-128 45.5t-128 59.5t-98 96t-40 155.5q0 109 78.5 183.5t201.5 101.5v158h230v-156q51 -8 91 -20.5t68 -26.5q33 -16 58 -33v-194q-45 18 -98 34 q-47 12 -106.5 23.5t-131.5 11.5q-20 0 -47 -6t-51.5 -17.5t-41 -25.5t-16.5 -31q0 -41 40 -65.5t98.5 -47t128 -47t128 -65.5t98.5 -105.5t40 -162.5q0 -53 -13.5 -106.5t-44 -98.5t-81 -80t-121.5 -51v-166h-230v154q-59 0 -108 15t-88 36q-45 23 -82 51z" />
<glyph unicode="%" horiz-adv-x="1286" d="M76 899q0 72 17.5 135.5t50 109.5t80.5 72.5t108 26.5q57 0 103 -25.5t78 -69.5t49.5 -103.5t17.5 -126.5q0 -72 -17.5 -136.5t-50.5 -111.5t-81 -75t-109 -28t-107.5 27t-77.5 72t-46 105t-15 128zM174 0l752 1325h258l-752 -1325h-258zM307 903q0 -45 2 -69.5t5 -37 t7.5 -15.5t8.5 -3t8 3t7 16.5t5 39t2 68.5q0 78 -5 102.5t-17 24.5q-16 0 -19.5 -25.5t-3.5 -103.5zM707 293q0 72 16 136.5t49 112.5t81 76.5t114 28.5q57 0 102 -25.5t77 -71.5t48 -107.5t16 -131.5t-19.5 -131t-53 -107t-80 -73t-101.5 -27q-59 0 -105 25t-79 68t-49 101 t-16 126zM936 301q0 -47 3 -84t19 -37q14 0 19.5 34t5.5 87t-4 94t-21 41q-16 0 -19 -38t-3 -97z" />
<glyph unicode="&#x26;" horiz-adv-x="1247" d="M76 305q0 113 60.5 185.5t170.5 123.5q-49 33 -89 90.5t-40 135.5q0 55 24.5 105t68.5 87t104.5 59.5t132.5 22.5q70 0 128 -21.5t99 -57.5t64.5 -82t23.5 -93t-12 -82t-34.5 -63.5t-53.5 -54t-70 -52.5q45 -35 70 -54t41 -32.5t31.5 -30t40.5 -45.5q23 49 36 85t21 69 t11 64.5t5 70.5l4 78h240q-4 -59 -16.5 -132t-34 -146.5t-53 -143t-72.5 -127.5q25 -29 71 -41t123 -12v-211q-104 0 -199 22.5t-143 75.5q-84 -59 -167.5 -87.5t-196.5 -28.5q-80 0 -150.5 18t-124 58t-84 100.5t-30.5 146.5zM311 305q0 -43 16.5 -65.5t41 -33.5 t51.5 -13.5t47 -2.5q45 0 73.5 5.5t52 14.5t45 22.5t52.5 29.5q-31 43 -53.5 76t-49 58.5t-58 49t-80.5 48.5q-18 -12 -42 -25.5t-45.5 -35t-36 -52.5t-14.5 -76zM414 840q0 -53 21.5 -78t37.5 -39q66 29 90.5 61.5t24.5 55.5q0 27 -21.5 43t-58.5 16q-53 0 -73.5 -23.5 t-20.5 -35.5z" />
<glyph unicode="'" horiz-adv-x="387" d="M76 737v418h235v-418h-235z" />
<glyph unicode="(" horiz-adv-x="593" d="M45 428q0 221 77 406.5t197 328.5h259q-59 -74 -114.5 -161t-97.5 -182t-68 -194.5t-26 -195.5q0 -109 26 -208t69 -188t98 -169t115 -152h-258q-68 84 -120 167t-87 169t-52.5 179.5t-17.5 199.5z" />
<glyph unicode=")" horiz-adv-x="593" d="M14 -287q59 72 114.5 153t98.5 171t69 187.5t26 201.5q0 109 -26 210t-68 193.5t-97 176.5t-115 157h256q121 -143 199 -328.5t78 -406.5q0 -225 -79 -402.5t-200 -312.5h-256z" />
<glyph unicode="*" horiz-adv-x="591" d="M76 834l166 86l-166 86l67 92l117 -111l-22 162h114l-24 -164l121 113l67 -92l-168 -86l168 -86l-67 -93l-121 113l24 -164h-114l22 162l-117 -111z" />
<glyph unicode="+" horiz-adv-x="878" d="M76 360v209h256v265h215v-265h256v-209h-256v-237h-215v237h-256z" />
<glyph unicode="," horiz-adv-x="389" d="M-123 -223q55 23 98 59q37 31 69 82t32 127v168h237v-168q0 -76 -28.5 -127t-63.5 -82q-39 -37 -90 -59h-254z" />
<glyph unicode="-" horiz-adv-x="663" d="M76 389v193h512v-193h-512z" />
<glyph unicode="." horiz-adv-x="387" d="M76 0v213h235v-213h-235z" />
<glyph unicode="/" horiz-adv-x="618" d="M14 0l359 1323h231l-360 -1323h-230z" />
<glyph unicode="0" horiz-adv-x="960" d="M45 526q0 133 30.5 243t87 187.5t137.5 119.5t179 42q94 0 174 -40t138.5 -113.5t91 -179t32.5 -236.5q0 -129 -33.5 -233.5t-94 -179.5t-143.5 -114.5t-183 -39.5q-96 0 -173 37.5t-130.5 108.5t-83 172t-29.5 226zM281 532q0 -104 17 -170.5t45 -104.5t61.5 -52.5 t66.5 -14.5t68.5 15.5t66.5 54.5t51.5 107t20.5 172q0 109 -19.5 179t-49 111t-66.5 57.5t-72 16.5q-31 0 -64.5 -16.5t-61.5 -58.5t-46 -113.5t-18 -182.5z" />
<glyph unicode="1" horiz-adv-x="581" d="M45 709v206q53 18 99 48t81 59q41 35 78 72h203v-1094h-236v782q-35 -23 -97 -41t-128 -32z" />
<glyph unicode="2" horiz-adv-x="806" d="M45 0v160q0 63 35 120.5t87 109.5t113.5 101.5t113.5 98.5t87 98.5t35 102.5q0 37 -12 58t-30.5 33.5t-41 16.5t-41.5 4q-33 0 -72.5 -8t-80.5 -21.5t-81 -33t-71 -43.5v198q43 45 124 84t181 39q84 0 150.5 -25.5t113.5 -68.5t72 -100.5t25 -120.5q0 -82 -26 -143.5 t-65.5 -110.5t-89 -88t-98.5 -78t-93 -80t-73 -92h486v-211h-748z" />
<glyph unicode="3" horiz-adv-x="827" d="M76 61v215q49 -41 128 -63.5t146 -22.5q18 0 52 4.5t66 16.5t55.5 35.5t23.5 62.5q0 43 -19.5 72t-62.5 45t-113.5 23.5t-173.5 7.5v211q92 -6 164 4q61 8 112.5 36.5t51.5 88.5q0 39 -13.5 60.5t-32 31.5t-39 12t-36.5 2q-90 0 -155.5 -19.5t-112.5 -54.5v201 q47 31 120.5 59.5t147.5 28.5q57 0 119.5 -18.5t115 -55t87 -91t34.5 -124.5q0 -66 -24.5 -111.5t-63.5 -76.5t-88 -46t-100 -20q51 -6 107.5 -21t102.5 -46t76.5 -77t30.5 -112q0 -70 -27.5 -131t-80.5 -107t-135 -72.5t-189 -26.5q-37 0 -75.5 8t-75.5 19t-70 25.5 t-53 26.5z" />
<glyph unicode="4" horiz-adv-x="849" d="M14 238v176l488 680h209v-641h125v-215h-125l-2 -238h-234v238h-461zM311 453h164v231z" />
<glyph unicode="5" horiz-adv-x="786" d="M76 41v233q37 -23 74 -41q33 -16 72.5 -28t76.5 -12t74 3t66.5 17t48 43t18.5 80q0 27 -8.5 55.5t-27.5 53t-54 41t-88 16.5q-47 0 -93.5 -6.5t-80.5 -14.5q-41 -8 -78 -18v631h596v-211h-361v-181h49q68 0 135.5 -19t122 -62t89 -111t34.5 -166q0 -78 -26.5 -143.5 t-80.5 -114.5t-138 -76.5t-197 -27.5q-72 0 -131 21.5t-92 37.5z" />
<glyph unicode="6" horiz-adv-x="858" d="M45 473q0 166 37 288t100.5 201.5t148.5 117.5t181 38q25 0 58.5 -3t68.5 -9t65.5 -13.5t49.5 -15.5v-213q-41 12 -82 21q-35 8 -77 14t-83 4q-98 -4 -148.5 -63.5t-68.5 -139.5q41 14 83 21.5t91 7.5q63 0 124.5 -27.5t111 -77t79 -117t29.5 -147.5q0 -84 -30.5 -153.5 t-83 -119.5t-122 -77.5t-147.5 -27.5q-76 0 -145.5 31.5t-122.5 93t-85 153.5t-32 213zM291 360q0 -57 16.5 -90.5t40 -51t47 -23t35.5 -5.5q18 0 45 8.5t49.5 29t39 53t16.5 79.5q0 53 -15.5 85t-39 48.5t-49 21.5t-46.5 5q-39 0 -65.5 -15.5t-43 -39t-23.5 -51t-7 -54.5z " />
<glyph unicode="7" horiz-adv-x="798" d="M14 883v211l770 -2v-62l-378 -1030h-244l338 883h-486z" />
<glyph unicode="8" horiz-adv-x="837" d="M45 311q0 92 30.5 154.5t102.5 122.5q-55 53 -73.5 110.5t-18.5 112.5t23.5 109.5t66.5 98.5t104.5 71.5t137.5 27.5q70 0 131 -28.5t106 -73.5t71 -99.5t26 -105.5q0 -72 -26 -120t-67 -103q59 -47 96.5 -120t37.5 -157q0 -70 -25 -130t-71 -104t-114.5 -69.5 t-156.5 -25.5q-96 0 -168 25.5t-119 69.5t-70.5 104.5t-23.5 129.5zM281 336q0 -47 14 -75t34.5 -44t45 -21.5t43.5 -5.5q18 0 42.5 5.5t46 19.5t36 42t14.5 75q0 78 -43 113.5t-96 35.5q-18 0 -42 -6t-45.5 -21.5t-35.5 -44t-14 -73.5zM322 799q0 -66 32.5 -86.5 t63.5 -20.5q10 0 26.5 4t33 16.5t28.5 33t12 53.5q0 6 -4 23.5t-14.5 36t-29.5 31.5t-52 13q-35 0 -54.5 -14.5t-28.5 -32.5t-11 -34.5t-2 -22.5z" />
<glyph unicode="9" horiz-adv-x="856" d="M45 737q0 88 33 159t86 120t121.5 75.5t140.5 26.5q88 0 159.5 -39t122 -108.5t77 -162.5t26.5 -202q0 -305 -130 -464.5t-370 -159.5q-47 0 -108.5 11t-98.5 25v211q29 -12 62 -20q29 -8 64.5 -13.5t76.5 -5.5q20 0 53 1.5t70 19.5t72 60t59 122q-39 -12 -83 -20t-93 -8 q-68 0 -130 31.5t-108.5 83.5t-74 119t-27.5 138zM279 737q0 -29 5 -57.5t20 -52t45 -39t77 -15.5t74.5 20.5t43 46.5t19.5 49.5t4 31.5q0 20 -4 52t-19.5 60.5t-43 49t-74.5 20.5q-41 0 -68.5 -18.5t-45 -44t-25.5 -54t-8 -49.5z" />
<glyph unicode=":" horiz-adv-x="387" d="M76 0v229h235v-229h-235zM76 578v231h235v-231h-235z" />
<glyph unicode=";" horiz-adv-x="389" d="M-123 -223q55 33 98 73q37 35 69 85.5t32 109.5v180h237v-180q0 -59 -28.5 -109.5t-63.5 -85.5q-39 -41 -90 -73h-254zM78 575v232h235v-232h-235z" />
<glyph unicode="&#x3c;" horiz-adv-x="851" d="M45 324v118l793 435v-240l-453 -250l453 -215v-231z" />
<glyph unicode="=" horiz-adv-x="878" d="M76 205v205h727v-205h-727zM76 500v205h727v-205h-727z" />
<glyph unicode="&#x3e;" horiz-adv-x="851" d="M14 -59v231l451 215l-451 250v240l793 -435v-118z" />
<glyph unicode="?" horiz-adv-x="755" d="M76 799v194q25 35 63 62q35 23 88.5 43t130.5 20q63 0 122 -21.5t103 -59.5t70.5 -88t26.5 -105q0 -53 -18.5 -94t-45 -73t-59.5 -57.5t-59.5 -49t-45 -48t-18.5 -53.5v-147h-235v165q0 39 18.5 73t45 61.5t59 53t59.5 51.5t45 51.5t18 53.5q0 70 -114 70 q-55 0 -101.5 -16.5t-81.5 -34.5q-39 -23 -71 -51zM199 0v231h235v-231h-235z" />
<glyph unicode="@" horiz-adv-x="1339" d="M76 428q0 121 50 226.5t134 184.5t195.5 124t234.5 45q119 0 223.5 -38t182.5 -105.5t123 -159t45 -197.5q0 -82 -26 -157t-68 -131t-95 -90t-108 -34q-41 0 -70 7.5t-49.5 19.5t-35 26.5l-26.5 26.5q-8 -8 -22 -21.5t-36.5 -26.5t-56.5 -22.5t-81 -9.5 q-59 0 -113.5 23.5t-94.5 66.5t-63.5 103.5t-23.5 132.5q0 82 30.5 145.5t78 106.5t104.5 65.5t113 22.5q29 0 60.5 -9.5t59 -24.5t48 -32.5t28.5 -36.5l17 82h180l-66 -335q-6 -43 -6 -76q0 -29 8 -51.5t35 -22.5q37 0 65.5 25.5t48 63.5t31 82t11.5 81q0 59 -30 129 t-86 129t-140 99t-195 40t-202 -46t-155.5 -115.5t-99 -154.5t-34.5 -161q0 -82 30.5 -161t91 -141.5t147.5 -101t200 -38.5q80 0 156.5 17t138.5 42v-106q-70 -23 -144 -39.5t-151 -16.5q-123 0 -230.5 41t-187.5 114t-127 172t-47 218zM530 422q0 -41 10.5 -63.5t25 -33 t26.5 -13.5t16 -3q41 0 63.5 21.5t34 49.5t13.5 53.5t2 35.5q0 105 -59 111q-41 0 -67 -17.5t-40 -42t-19.5 -52.5t-5.5 -46z" />
<glyph unicode="A" horiz-adv-x="1046" d="M14 0l408 1094h201l409 -1094h-241l-99 260h-344l-100 -260h-234zM424 471h192l-94 270z" />
<glyph unicode="B" horiz-adv-x="899" d="M76 0v1094h340q80 0 144.5 -21.5t108.5 -60.5t68.5 -90.5t24.5 -108.5q0 -61 -23.5 -104t-59.5 -70t-79 -38t-84 -11q45 0 99.5 -12.5t100.5 -41t76.5 -78.5t30.5 -126q0 -84 -36.5 -146.5t-95 -103.5t-133.5 -61.5t-148 -20.5h-334zM311 211h86q86 0 138.5 34t52.5 87 q0 25 -8.5 49.5t-31 44.5t-61 32.5t-100.5 12.5h-76v-260zM311 682h51q78 0 121 27.5t43 83.5q0 37 -17 55t-41 25.5t-47.5 8.5t-33.5 1h-76v-201z" />
<glyph unicode="C" horiz-adv-x="966" d="M45 537q0 129 43 236.5t117 184t173 118.5t212 42q129 0 221 -23.5t141 -45.5l-82 -203q-59 29 -137 43t-143 14q-100 0 -160.5 -47t-93.5 -108.5t-43 -123t-10 -87.5q0 -76 22.5 -139.5t62.5 -109.5t96 -72t126 -26q78 0 148.5 26t129.5 56l82 -200 q-59 -35 -161.5 -62.5t-213.5 -27.5q-117 0 -214 43t-167.5 117.5t-109.5 176t-39 218.5z" />
<glyph unicode="D" horiz-adv-x="1052" d="M76 0v1094h323q131 0 243 -29t192.5 -93.5t127 -165.5t46.5 -249q0 -135 -50.5 -238.5t-136.5 -175t-198.5 -107.5t-235.5 -36h-311zM311 211h76q98 0 170 28.5t120 77t71.5 110.5t23.5 130q0 74 -19.5 133.5t-62.5 102.5t-112.5 66.5t-171.5 23.5h-95v-672z" />
<glyph unicode="E" horiz-adv-x="796" d="M76 0v1094h645v-211h-410v-230h369v-213h-369v-229h410v-211h-645z" />
<glyph unicode="F" horiz-adv-x="735" d="M76 0v1094h645v-211h-410v-230h369v-213h-369v-440h-235z" />
<glyph unicode="G" horiz-adv-x="1073" d="M45 526q0 119 43 226.5t122 189.5t187.5 129t239.5 47q88 0 152.5 -14t105.5 -31q49 -20 82 -45v-240q-25 20 -64 42t-87 37.5t-103 25.5t-113 10q-94 0 -157.5 -41t-101.5 -100.5t-54 -124t-16 -111.5q2 -47 16 -105.5t49 -109.5t92.5 -86t145.5 -35h54t39.5 2.5t38 7.5 t46.5 15v186h-225v211h460v-538q-39 -23 -90 -40.5t-107.5 -28.5t-112.5 -17t-105 -6q-109 0 -206 38.5t-171 109.5t-117 171t-43 225z" />
<glyph unicode="H" horiz-adv-x="1021" d="M76 0v1094h235v-422h400l-2 422h237v-1094h-235v461h-400l-2 -461h-233z" />
<glyph unicode="I" horiz-adv-x="387" d="M76 0v1094h235v-1094h-235z" />
<glyph unicode="J" horiz-adv-x="647" d="M14 41l82 180q20 -8 43 -16q18 -6 42 -10.5t46 -4.5q51 0 80 45.5t29 161.5v697h235v-697q0 -121 -32.5 -200.5t-85 -128t-117 -68.5t-129.5 -20q-39 0 -74 9t-61 21q-31 12 -58 31z" />
<glyph unicode="K" horiz-adv-x="940" d="M76 0v1094h235v-396l324 396h287l-324 -406l328 -688h-252l-234 500l-129 -154v-346h-235z" />
<glyph unicode="L" horiz-adv-x="735" d="M76 0v1094h235v-883h410v-211h-645z" />
<glyph unicode="M" horiz-adv-x="1308" d="M76 0v1094h256l313 -721l330 721h258v-1094h-236v614l-286 -614h-136l-264 598v-598h-235z" />
<glyph unicode="N" horiz-adv-x="1083" d="M76 0v1094h239l455 -695v695h238v-1094h-242l-455 686v-686h-235z" />
<glyph unicode="O" horiz-adv-x="1165" d="M45 532q0 125 37 231.5t106.5 185.5t169 124t224.5 45t225 -44t170 -120.5t106.5 -179t36.5 -219.5q0 -125 -36.5 -230.5t-107.5 -181t-174.5 -118.5t-234.5 -43q-121 0 -218 42t-164.5 116.5t-103.5 175t-36 216.5zM281 532q0 -92 25.5 -157.5t66.5 -106.5t92 -59.5 t102 -18.5q59 0 116.5 18.5t101.5 61.5t72 113t28 172q0 92 -27 158.5t-70 108.5t-96 61.5t-104 19.5q-59 0 -114.5 -20.5t-98.5 -64.5t-68.5 -114.5t-25.5 -171.5z" />
<glyph unicode="P" horiz-adv-x="847" d="M76 0v1094h321q80 0 154 -19.5t129 -62.5t89 -109.5t34 -161.5q0 -106 -36 -179t-96.5 -118t-138 -64.5t-163.5 -19.5h-58l-2 -360h-233zM311 571h58q59 0 98 13.5t61.5 36t30.5 53.5t8 65q0 27 -4 52.5t-20.5 46t-50 33t-95.5 12.5h-86v-312z" />
<glyph unicode="Q" horiz-adv-x="1165" d="M45 532q0 125 39 231.5t107.5 185.5t163 124t206.5 45q133 0 236.5 -44t175 -120.5t109.5 -179t38 -219.5q0 -180 -74.5 -311t-185.5 -193q25 -10 54.5 -26.5t55 -40t43 -55t17.5 -70.5h-225q0 57 -35 87.5t-74 45.5q-33 -8 -75.5 -9t-79.5 -1q-106 0 -197.5 42 t-157 116.5t-103.5 175t-38 216.5zM281 532q0 -92 24.5 -157.5t64.5 -107.5t92 -60.5t107 -18.5q57 0 113.5 19.5t101.5 62.5t73 113t28 172q0 92 -27 158.5t-71 108.5t-103 61.5t-123 19.5q-45 0 -94 -20.5t-91 -64.5t-68.5 -114.5t-26.5 -171.5z" />
<glyph unicode="R" horiz-adv-x="974" d="M76 0v1094h350q68 0 136.5 -19.5t121.5 -58.5t87 -99.5t34 -142.5q0 -55 -24.5 -98t-61.5 -73t-77 -45t-71 -15q47 -16 103.5 -91t116.5 -171l170 -281h-273l-137 240q-33 57 -64.5 93t-59.5 55.5t-48.5 25.5t-30.5 6h-37l-2 -420h-233zM311 633l90 2q88 2 127 37t39 102 q0 41 -33.5 73t-132.5 34l-90 2v-250z" />
<glyph unicode="S" horiz-adv-x="919" d="M76 88v199q41 -27 90 -47q41 -18 95 -32.5t114 -14.5q47 0 89 4t74.5 18t51 42t18.5 75q0 55 -40 86t-98 52.5t-128 43t-128 58t-98 95t-40 156.5q0 59 29.5 112.5t81 93.5t122 62.5t150.5 22.5q94 0 159.5 -13.5t106.5 -29.5q49 -18 78 -41v-207q-49 20 -103 39 q-47 16 -108.5 28.5t-132.5 12.5q-72 0 -109 -25.5t-37 -54.5q0 -43 39 -67.5t98.5 -45t128 -44t128 -64.5t98.5 -104.5t39 -165.5q0 -74 -24.5 -138.5t-75 -111.5t-129 -73.5t-185.5 -26.5q-86 0 -151.5 16t-110.5 37q-53 23 -92 53z" />
<glyph unicode="T" horiz-adv-x="827" d="M14 883v211h799v-211h-276v-883h-236v883h-287z" />
<glyph unicode="U" horiz-adv-x="1021" d="M76 426v668h235v-660q0 -78 15.5 -125t41 -73.5t59.5 -36t73 -9.5q31 0 67.5 8.5t68.5 33t53.5 69.5t21.5 121v672h235v-654q0 -123 -33.5 -210t-94 -142t-142.5 -80.5t-178 -25.5q-92 0 -169 25.5t-133.5 79.5t-88 138t-31.5 201z" />
<glyph unicode="V" horiz-adv-x="1046" d="M14 1094h240l268 -734l269 734h241l-409 -1094h-201z" />
<glyph unicode="W" horiz-adv-x="1468" d="M14 1094h240l195 -697l213 697h165l177 -688l210 688h240l-342 -1094h-229l-146 616l-176 -616h-229z" />
<glyph unicode="X" horiz-adv-x="1034" d="M14 0l363 547l-338 547h274l205 -340l223 340h279l-365 -547l365 -547h-279l-225 344l-225 -344h-277z" />
<glyph unicode="Y" horiz-adv-x="966" d="M14 1094h246l213 -435l229 435h250l-362 -691v-403h-238v403z" />
<glyph unicode="Z" horiz-adv-x="899" d="M14 0v102l525 781h-484v211h830v-103l-527 -780h506v-211h-850z" />
<glyph unicode="[" horiz-adv-x="514" d="M76 -287v1454h424v-211h-201v-1032h201v-211h-424z" />
<glyph unicode="\" horiz-adv-x="618" d="M14 1323h230l360 -1323h-231z" />
<glyph unicode="]" horiz-adv-x="514" d="M14 -76h201v1032h-201v211h424v-1454h-424v211z" />
<glyph unicode="^" horiz-adv-x="1112" d="M76 395l395 770h121l444 -770h-243l-256 439l-222 -439h-239z" />
<glyph unicode="_" horiz-adv-x="878" d="M76 90h727v-190h-727v190z" />
<glyph unicode="`" horiz-adv-x="661" d="M76 1221h268l242 -320h-240z" />
<glyph unicode="a" horiz-adv-x="843" d="M76 653q27 51 71 92q39 35 103.5 65t165.5 30q74 0 138 -22.5t111.5 -63.5t75 -102.5t27.5 -137.5v-514h-225v127q-14 -16 -34 -40t-45.5 -45.5t-57 -36.5t-70.5 -15q-53 0 -100.5 19.5t-81.5 54.5q-34 34 -54 80q-18 42 -18 90v10q2 68 29.5 108.5t66.5 63t83 31t83 8.5 q53 0 91 4t61 10q27 8 43 16q0 53 -12.5 84t-32 46.5t-43 19.5t-43.5 4q-63 0 -113.5 -17.5t-85.5 -39.5q-41 -25 -74 -58zM307 244q0 -43 28.5 -54.5t61.5 -11.5t77 15.5t69 50.5v78q-23 -4 -47 -9q-43 -6 -109 -6q-20 0 -50 -17.5t-30 -45.5z" />
<glyph unicode="b" horiz-adv-x="940" d="M76 0v1157h225v-477q12 45 39 82q23 31 61.5 57.5t100.5 26.5q53 0 121.5 -24.5t129 -76t101.5 -130t41 -187.5q0 -121 -40 -204t-101.5 -135t-132 -75.5t-132.5 -23.5q-61 0 -98 24.5t-57 53.5q-23 35 -33 79v-147h-225zM301 268q23 -23 51 -39q23 -14 55.5 -25 t67.5 -11q39 0 75 13t62.5 40.5t42 71.5t15.5 108q0 49 -16.5 89t-43 68.5t-61.5 44t-74 15.5q-35 0 -65.5 -12.5t-55.5 -26.5q-29 -18 -53 -39v-297z" />
<glyph unicode="c" horiz-adv-x="749" d="M45 393q0 100 35 182t93 140.5t133 91.5t157 33q53 0 102 -13.5t88 -29.5q43 -18 82 -41l-92 -201q-29 23 -57 41q-27 16 -57.5 29.5t-63.5 13.5q-53 0 -90 -24.5t-59.5 -61.5t-34 -80t-11.5 -80q0 -39 11.5 -75.5t36 -65.5t61.5 -46.5t90 -17.5q33 0 63.5 12.5 t55.5 28.5q29 18 55 43l92 -200q-45 -23 -92 -41q-41 -16 -88 -28.5t-90 -12.5q-80 0 -156 24.5t-134 74.5t-94 126t-36 178z" />
<glyph unicode="d" horiz-adv-x="940" d="M45 428q0 94 36 171t89 130t116.5 82t116.5 29q61 0 105.5 -26t73.5 -54q35 -37 57 -80v477h225v-1157h-225v147q-20 -43 -51 -77q-29 -29 -71 -53.5t-103 -24.5t-127 28.5t-119 85t-88 137.5t-35 185zM270 426q0 -45 11.5 -88t33 -76t52 -52.5t69.5 -19.5q53 0 92 11.5 t64 27.5q29 16 47 39v297q-18 20 -47 37q-25 14 -62.5 26.5t-91.5 12.5q-39 0 -69.5 -19.5t-52 -50t-34 -69.5t-12.5 -76z" />
<glyph unicode="e" horiz-adv-x="833" d="M45 401q0 84 26.5 163t77 140.5t121 98.5t158.5 37q90 0 155.5 -31t109.5 -84t65.5 -128t25.5 -161l4 -108h-514q0 -23 12.5 -47.5t37 -45t60.5 -34t85 -13.5q55 0 94 11.5t64 27.5q29 16 49 39l78 -168q-35 -31 -82 -53q-41 -20 -98.5 -36.5t-129.5 -16.5 q-88 0 -160.5 25.5t-126 76.5t-83 128t-29.5 179zM287 528h266q0 10 -7 28.5t-22.5 37t-39 32t-56.5 13.5q-29 0 -54.5 -13.5t-45 -32t-30.5 -36.5t-11 -29z" />
<glyph unicode="f" horiz-adv-x="591" d="M14 612v203h131l2 57q2 59 14.5 114.5t43.5 97.5t83 68t134 26q35 0 64.5 -5.5t50.5 -11.5q23 -8 41 -16v-215q-20 14 -43 24q-18 10 -38 17.5t-34 7.5h-21.5t-31 -9t-27.5 -32t-12 -66v-57h207v-203h-205l-2 -612h-224v612h-133z" />
<glyph unicode="g" horiz-adv-x="940" d="M45 401q0 104 37 186.5t94 137.5t125 85t129 30t101 -26t65 -54q27 -37 43 -80l-2 149h227v-761q0 -223 -118.5 -324.5t-346.5 -101.5q-61 0 -114.5 16t-94.5 39q-47 25 -88 57l82 183q23 -25 56 -46q29 -16 67.5 -30.5t91.5 -14.5q37 0 80 5.5t78 25t58.5 59t23.5 111.5 v100q-14 -45 -39 -79q-23 -31 -61.5 -55.5t-100.5 -24.5q-68 0 -138.5 28.5t-126.5 83t-92 130t-36 171.5zM270 401q0 -29 10.5 -66.5t31 -70.5t50 -55.5t68.5 -22.5q53 0 92 11.5t66 25.5q31 16 51 39v297q-20 20 -51 37q-27 14 -66 26.5t-92 12.5q-39 0 -68.5 -20.5 t-50 -54.5t-31 -76t-10.5 -83z" />
<glyph unicode="h" horiz-adv-x="878" d="M76 0v1157h225v-498q20 51 51 91q27 35 64 62.5t86 27.5q74 0 130 -27t94 -71t57.5 -101t19.5 -119v-522h-225v528q0 37 -33 70t-111 33q-29 0 -52.5 -10.5t-41.5 -22.5q-23 -14 -39 -31v-567h-225z" />
<glyph unicode="i" horiz-adv-x="376" d="M76 0v829h225v-829h-225zM76 936v221h225v-221h-225z" />
<glyph unicode="j" horiz-adv-x="376" d="M-219 -281l80 179q16 -14 35 -25q14 -10 30.5 -17.5t30.5 -7.5q20 0 41.5 5.5t38 25t28 56t11.5 98.5v796h225v-772q0 -88 -21.5 -163.5t-64.5 -131t-108.5 -87t-155.5 -31.5q-39 0 -70 11t-53 26q-27 16 -47 38zM76 934v223h225v-223h-225z" />
<glyph unicode="k" horiz-adv-x="827" d="M76 0v1157h225v-625l244 297h268l-256 -311l246 -518h-232l-159 342l-111 -139v-203h-225z" />
<glyph unicode="l" horiz-adv-x="376" d="M76 0v1157h225v-1157h-225z" />
<glyph unicode="m" horiz-adv-x="1380" d="M76 0v829h225v-170q0 2 12.5 31t38 61.5t66.5 60.5t100 28q51 0 93 -17.5t74 -45t54.5 -61.5t36.5 -65q8 12 24.5 43t44 62.5t66.5 57.5t93 26q74 0 130 -29t94 -74t57.5 -101t19.5 -114v-522h-226v528q0 12 -5 28.5t-19.5 33t-40 28t-64.5 11.5q-23 0 -48 -10.5 t-48 -20.5q-27 -14 -51 -31v-567h-225v528q0 41 -33 70t-111 29q-20 0 -42.5 -10.5t-43.5 -20.5q-23 -12 -47 -29v-567h-225z" />
<glyph unicode="n" horiz-adv-x="878" d="M76 0v829h225v-170q20 51 53 91q29 35 70 62.5t100 27.5q66 0 118 -29t88 -74t54.5 -101t18.5 -114v-522h-225l-3 528q0 12 -7 29.5t-21.5 33t-37 27t-52.5 11.5q-29 0 -56.5 -10.5t-50.5 -20.5q-27 -14 -49 -31v-567h-225z" />
<glyph unicode="o" horiz-adv-x="917" d="M45 403q0 92 27.5 172t81 138.5t131 92.5t178.5 34q98 0 174 -34t128 -90.5t79.5 -133t27.5 -162.5q0 -92 -29.5 -172t-83.5 -137.5t-133 -90t-177 -32.5q-92 0 -167 32.5t-127.5 89t-81 132t-28.5 161.5zM270 403q0 -33 7.5 -70.5t28 -69.5t55.5 -53.5t88 -21.5 q57 0 96 20.5t61.5 53.5t31.5 74t9 84q0 37 -8 76t-29.5 70.5t-57.5 52t-89 20.5q-59 0 -96 -23.5t-58.5 -59.5t-30 -77t-8.5 -76z" />
<glyph unicode="p" horiz-adv-x="940" d="M76 -326v1155h225v-149q23 43 51 80q25 29 56.5 54.5t72.5 25.5q84 0 159 -30t132 -85t90 -137t33 -187q0 -96 -38 -171.5t-94 -130t-120.5 -83t-118.5 -28.5q-61 0 -104 24.5t-70 55.5q-31 35 -49 79v-473h-225zM301 262q23 -23 53 -39q27 -16 63 -27.5t83 -11.5 q12 0 39.5 9.5t56.5 34t50.5 66.5t21.5 107q0 82 -22.5 129.5t-53.5 71t-63.5 29.5t-53.5 6q-35 0 -65.5 -12.5t-55.5 -26.5q-29 -18 -53 -39v-297z" />
<glyph unicode="q" horiz-adv-x="940" d="M45 401q0 104 32 186.5t81 137.5t111.5 85t123.5 30t107.5 -26t77.5 -54q37 -37 61 -80v149h225v-1155h-225v473q-16 -45 -43 -79q-25 -31 -64.5 -55.5t-101.5 -24.5q-66 0 -134.5 28.5t-123.5 83t-91 130t-36 171.5zM270 401q0 -66 21.5 -107.5t50.5 -66t56.5 -34 t41.5 -9.5q43 0 79 11.5t63 27.5q31 16 57 39v297q-27 20 -57 39q-27 14 -60 26.5t-67 12.5q-12 0 -43 -6t-63 -29.5t-55.5 -71t-23.5 -129.5z" />
<glyph unicode="r" horiz-adv-x="575" d="M76 0v829h225v-231q16 68 43 121q23 47 57.5 85t85.5 38q10 0 24.5 -5.5t25.5 -9.5l24 -12v-225q-16 6 -33 14q-14 4 -30.5 9t-32.5 5q-31 0 -60.5 -21.5t-52.5 -47.5q-27 -31 -51 -70v-479h-225z" />
<glyph unicode="s" horiz-adv-x="755" d="M76 53v199q35 -20 74 -37q35 -14 77.5 -25.5t89.5 -11.5q84 0 111 21.5t27 50.5q0 33 -28 51t-71 32.5t-91 32t-91 45t-70.5 71.5t-27.5 116q0 63 30.5 110.5t76.5 78t98.5 46t95.5 15.5q70 0 119 -12.5t82 -26.5q37 -18 61 -39v-192q-37 18 -80 34q-37 14 -84 25.5 t-98 11.5q-37 0 -56.5 -20.5t-19.5 -30.5q0 -20 27.5 -32.5t70.5 -25t91.5 -29.5t91.5 -49t70.5 -83t27.5 -129q0 -123 -93 -195.5t-251 -72.5q-47 0 -93 10t-83 24q-43 16 -84 37z" />
<glyph unicode="t" horiz-adv-x="591" d="M14 612v203h133l-2 342h228v-342h205v-203h-205v-319q0 -43 10 -64.5t23.5 -30t25.5 -8.5h17q23 0 45 6.5t41 14.5q23 8 43 22v-213q-14 -8 -37 -14q-18 -6 -46 -10t-63 -4q-74 0 -128 23.5t-89 64.5t-52.5 95t-17.5 114v323h-131z" />
<glyph unicode="u" horiz-adv-x="878" d="M76 305v524h225v-499q0 -37 12.5 -60.5t30.5 -37t38.5 -18.5t37.5 -5q29 0 56.5 10t49.5 23q27 14 52 32v555h225v-819h-225v158q-12 -47 -35 -84q-20 -33 -58.5 -58.5t-97.5 -25.5q-74 0 -132 26.5t-98 69.5t-60.5 97.5t-20.5 111.5z" />
<glyph unicode="v" horiz-adv-x="864" d="M14 829h252l176 -481l176 481h232l-295 -829h-223z" />
<glyph unicode="w" horiz-adv-x="1210" d="M14 829h248l117 -446l147 446h166l131 -446l131 446h242l-260 -829h-207l-125 430l-139 -430h-217z" />
<glyph unicode="x" horiz-adv-x="854" d="M14 0l283 414l-283 415h258l154 -227l154 227h258l-283 -426l285 -403h-258l-156 217l-156 -217h-256z" />
<glyph unicode="y" horiz-adv-x="911" d="M14 829h244l215 -481l180 481h244l-373 -940q-45 -113 -112.5 -179t-182.5 -66q-53 0 -91 10t-64 24q-31 14 -51 35l77 176q20 -14 41 -22q16 -8 36 -14.5t36 -6.5q45 0 69.5 32t45.5 91l26 78z" />
<glyph unicode="z" horiz-adv-x="792" d="M76 0v104l368 525h-329v200h663v-110l-366 -520h360v-199h-696z" />
<glyph unicode="{" horiz-adv-x="540" d="M45 311v191q31 2 54.5 6t41 15.5t25.5 34t8 63.5v239q0 61 14.5 115.5t54.5 95.5t107.5 66.5t175.5 31.5v-208q-10 0 -31.5 -2.5t-42 -12.5t-36 -30.5t-15.5 -59.5v-246q0 -41 -15 -74.5t-41 -61.5t-59.5 -46t-68.5 -29q33 -8 66.5 -26.5t59.5 -45t42 -61.5t16 -78v-235 q0 -43 18.5 -63.5t41 -27.5t42 -6t23.5 1v-211q-92 0 -158.5 22.5t-109.5 61.5t-63.5 92t-20.5 117v243q0 41 -8 65.5t-25.5 37t-41 17.5t-54.5 9z" />
<glyph unicode="|" horiz-adv-x="378" d="M76 -256v1522h227v-1522h-227z" />
<glyph unicode="}" horiz-adv-x="540" d="M14 -143q2 0 22.5 -1t43 6t41 27.5t18.5 63.5v235q0 43 16.5 78t42 61.5t58.5 45t68 26.5q-35 10 -69 28.5t-59.5 46.5t-41 61.5t-15.5 74.5v246q0 39 -15 59.5t-35.5 30.5t-42 12.5t-32.5 2.5v208q106 -6 175 -31.5t109 -66.5t54.5 -95t14.5 -116v-239q0 -41 8 -63.5 t25.5 -34t41 -15.5t54.5 -6v-191q-31 -4 -54.5 -9t-41 -17.5t-25.5 -37t-8 -65.5v-243q0 -63 -20.5 -116.5t-63.5 -92.5t-110 -61.5t-159 -22.5v211z" />
<glyph unicode="~" horiz-adv-x="876" d="M76 338q0 41 10 90t34.5 92t66.5 72t106 29q51 0 90 -15.5t69.5 -34t55 -34t51.5 -15.5q33 0 37 22.5t8 76.5h197q-2 -49 -12.5 -99.5t-35 -91.5t-64.5 -66.5t-99 -25.5q-61 0 -104.5 15.5t-75 34t-56 33.5t-45.5 15q-25 0 -31 -21.5t-6 -76.5h-196z" />
<glyph unicode="&#xa9;" horiz-adv-x="1345" d="M76 496q0 125 47 233.5t128 189t189.5 127t233.5 46.5t233.5 -46.5t189.5 -127t127 -189t46 -233.5t-46 -233.5t-127 -188.5t-189.5 -126t-233.5 -46t-233.5 46t-189.5 126t-128 188.5t-47 233.5zM182 494q0 -102 39 -191.5t105.5 -156t156.5 -105.5t193 -39 q102 0 191 39t156 105.5t105.5 155.5t38.5 192q0 102 -38.5 191t-105.5 155.5t-156 105.5t-191 39t-192.5 -39t-157 -105.5t-105.5 -155.5t-39 -191zM303 485q0 88 26.5 160t75 123t115 78.5t148.5 27.5q25 0 53.5 -2t58 -6t56 -10t45.5 -12l-35 -74q-37 16 -86 23.5 t-90 7.5q-68 0 -119 -28t-87 -73t-53.5 -101t-17.5 -114q0 -61 17.5 -116.5t53.5 -97.5t87 -67.5t119 -25.5q53 0 94 11.5t82 33.5l33 -76q-41 -23 -102.5 -34t-117.5 -11q-80 0 -146.5 28t-112.5 78t-71.5 120.5t-25.5 156.5z" />
<glyph unicode="&#xad;" horiz-adv-x="663" d="M76 389v193h512v-193h-512z" />
<glyph unicode="&#xae;" horiz-adv-x="1345" d="M76 496q0 125 47 233.5t128 189t189.5 127t233.5 46.5t233.5 -46.5t189.5 -127t127 -189t46 -233.5t-46 -233.5t-127 -188.5t-189.5 -126t-233.5 -46t-233.5 46t-189.5 126t-128 188.5t-47 233.5zM182 492q0 -102 39 -192.5t105.5 -157t156.5 -104.5t193 -38 q104 0 194.5 38t157 104.5t104 156.5t37.5 193q0 104 -37.5 194t-104 156.5t-157 104.5t-194.5 38q-102 0 -192.5 -38t-157 -104.5t-105.5 -156.5t-39 -194zM444 133v752h220q45 0 87 -12.5t74.5 -37t53 -63.5t20.5 -92q0 -49 -14.5 -84t-39 -58.5t-56 -37t-66.5 -19.5 q37 -20 75 -53t54 -61l137 -234h-108l-127 213q-33 55 -80 82t-76 27h-63v-322h-91zM535 530h88q37 0 70.5 8.5t59 27t42 46t16.5 68.5q0 61 -44 94t-122 33h-110v-277z" />
<glyph unicode="&#xbc;" horiz-adv-x="1622" d="M90 1114v113q29 10 52.5 25.5t43.5 31.5q23 18 43 39h109v-592h-127v424q-18 -12 -52 -22.5t-69 -18.5zM311 0l768 1323h232l-770 -1323h-230zM1130 246v94l265 369h112v-347h68v-116h-68l-2 -129h-125v129h-250zM1290 362h90v125z" />
<glyph unicode="&#xbd;" horiz-adv-x="1638" d="M90 1114v113q29 10 52.5 25.5t43.5 31.5q23 18 43 39h109v-592h-127v424q-18 -12 -52 -22.5t-69 -18.5zM311 0l768 1323h232l-770 -1323h-230zM1165 117v88q0 53 41 97t89 85t89 81t41 85q0 41 -23.5 51t-45.5 10q-35 0 -84 -15t-84 -44v111q25 25 68.5 46t99.5 21 q92 0 145 -51t53 -123q0 -68 -29.5 -110.5t-69.5 -76.5t-81 -65t-63 -74h266v-116h-412z" />
<glyph unicode="&#xbe;" horiz-adv-x="1665" d="M76 774v117q27 -23 69.5 -35t79.5 -12q10 0 27.5 2t35 9t31 20.5t13.5 33.5q0 47 -45 63.5t-156 16.5v113q49 -4 88 2q35 4 62.5 19.5t27.5 50.5q0 20 -7 31.5t-17.5 17.5t-21.5 7t-19 1q-49 0 -84 -11.5t-62 -29.5v108q27 16 66 33t80 17q31 0 64.5 -10.5t62 -31t47 -49 t18.5 -67.5q0 -35 -13 -60.5t-33.5 -42t-48.5 -24.5t-54 -10q27 -4 57.5 -12.5t56 -25t42 -41t16.5 -61.5q0 -76 -58.5 -129t-175.5 -53q-41 0 -84 15.5t-65 27.5zM354 0l768 1323h232l-770 -1323h-230zM1174 246v94l264 369h112v-347h68v-116h-68l-2 -129h-125v129h-249z M1333 362h90v125z" />
<glyph unicode="&#xe01;" horiz-adv-x="997" d="M45 721q41 76 102 135q53 51 131 94t187 43q92 0 175 -23.5t145.5 -66.5t99.5 -105.5t37 -138.5v-491q0 -29 -20.5 -58.5t-43.5 -54.5q-27 -29 -61 -55h-111v618q0 49 -19.5 80t-50 49.5t-67.5 25.5t-72 7q-45 0 -76.5 -10t-52.5 -20q-23 -12 -39 -29l127 -103 q-23 -18 -39 -45q-14 -23 -25.5 -57.5t-11.5 -79.5v-436h-227v455q0 39 4 68.5t10 51.5q8 25 17 43q-35 29 -60 52q-23 18 -41 33.5t-18 17.5z" />
<glyph unicode="&#xe02;" horiz-adv-x="847" d="M45 766v207h137q82 0 140.5 -18.5t94.5 -51.5t52 -75t16 -87q0 -51 -20.5 -96t-50.5 -76q-8 -8 -20.5 -26.5t-25 -41t-20.5 -46t-8 -41.5v-82q0 -78 25.5 -110t66.5 -32q49 0 77 37t28 105v641h235v-641q0 -61 -15.5 -124t-56.5 -113t-113.5 -80.5t-187.5 -30.5 q-82 0 -136 31.5t-88 80.5t-48 111.5t-14 124.5v82q0 33 8 67.5t20.5 67.5t27.5 61.5t30 48.5q12 18 31.5 42t19.5 40q0 12 -19.5 18.5t-48.5 6.5h-137z" />
<glyph unicode="&#xe03;" horiz-adv-x="847" d="M45 764v209q23 0 43.5 -16.5t36.5 -36.5q18 -23 33 -54q20 31 45 54q23 20 52.5 36.5t70.5 16.5q20 0 47.5 -10.5t54.5 -35t45.5 -64.5t18.5 -97q0 -61 -21.5 -112.5t-52.5 -82.5q-8 -8 -21.5 -24.5t-26 -40t-21.5 -51t-9 -58.5v-65q0 -78 24.5 -110t73.5 -32q47 0 73 40 t26 108v635h235v-627q0 -68 -16.5 -132t-55 -116.5t-103.5 -84t-159 -31.5q-98 0 -162.5 31.5t-101.5 81.5t-52.5 112.5t-15.5 124.5v76q0 86 28 140t63 109q6 10 18 24.5t24.5 29t21.5 27t9 20.5q0 14 -15 21t-38 -15q-10 -10 -19.5 -22.5t-19.5 -22.5q-10 -12 -20 -25 q-12 18 -29 35q-14 12 -35.5 23.5t-48.5 11.5z" />
<glyph unicode="&#xe04;" horiz-adv-x="1001" d="M76 0v659q0 72 33.5 133.5t92 105.5t135.5 69.5t163 25.5q82 0 158.5 -24.5t136 -68.5t95.5 -105.5t36 -135.5v-659h-236v659q0 41 -49 81t-141 40t-140.5 -37.5t-48.5 -83.5v-167q31 27 68 49q31 18 70.5 34.5t87.5 16.5v-232q-61 0 -104.5 -11t-72.5 -25 q-33 -16 -51 -35v-289h-233z" />
<glyph unicode="&#xe05;" horiz-adv-x="1001" d="M76 0v659q0 53 22.5 111.5t58.5 107t81 80t90 31.5q29 0 59.5 -22.5t56.5 -51.5q29 -33 58 -71q23 41 49 74q23 29 54.5 51t66.5 22q51 0 97 -31.5t81 -81t55.5 -107.5t20.5 -112v-659h-236v659q0 61 -20.5 91t-42.5 30q-16 0 -37 -22.5t-41 -48.5q-23 -31 -47 -70 q-27 39 -49 70q-20 27 -42 49t-38 22t-40 -29.5t-24 -91.5v-167q29 27 66 49q31 18 71.5 34.5t90.5 16.5v-232q-61 0 -103.5 -11t-71.5 -23q-33 -16 -53 -35v-291h-233z" />
<glyph unicode="&#xe06;" horiz-adv-x="1011" d="M45 764v209q23 0 43.5 -16.5t36.5 -36.5q18 -23 33 -54q20 33 45 56q23 20 52.5 36.5t70.5 14.5q39 -2 71.5 -20.5t57 -48.5t38 -66.5t13.5 -75.5q0 -70 -26.5 -111t-57.5 -72.5t-56.5 -65.5t-25.5 -87l2 -131q23 -25 53 -43q27 -16 64 -29.5t88 -13.5q23 0 49.5 6 t50 24.5t38.5 55.5t15 98v580h236v-617q0 -86 -23.5 -155.5t-66.5 -117.5t-101.5 -74.5t-128.5 -26.5q-74 0 -125 28.5t-85 63.5q-39 41 -66 94v-168h-234v446q0 68 26 113t56.5 77t56 57.5t25.5 54.5q0 8 -1 20t-23 12q-10 0 -25.5 -13t-30.5 -30q-16 -20 -32 -43 q-20 18 -41 35q-16 12 -36 23.5t-36 11.5z" />
<glyph unicode="&#xe07;" horiz-adv-x="874" d="M51 674h238l117 -459q16 0 47.5 13.5t62.5 45t54.5 83t23.5 128.5q0 76 -24.5 129.5t-67.5 85t-98.5 46t-116.5 14.5v211q92 0 188 -26.5t175 -84t129 -151t50 -224.5q0 -100 -39.5 -188t-102 -154.5t-139.5 -104.5t-153 -38h-180z" />
<glyph unicode="&#xe08;" horiz-adv-x="966" d="M29 797q39 55 100 98q51 37 131 67.5t191 30.5q100 0 186 -43t149.5 -112.5t99.5 -156.5t36 -175q0 -96 -28 -187.5t-86 -162t-152.5 -113.5t-225.5 -43h-102l-82 322q-6 16 -15.5 16h-25.5h-41v213h82h52.5t60 -13.5t61.5 -46t55 -96.5l43 -180q23 0 51.5 20.5t55 59.5 t44 92t17.5 119q0 88 -30.5 142t-70.5 83t-78 39t-54 10q-92 0 -157 -27.5t-106 -62.5q-49 -39 -79 -90z" />
<glyph unicode="&#xe09;" horiz-adv-x="991" d="M45 379v213h152q86 0 122.5 -51.5t36.5 -151.5v-57q0 -47 11.5 -71.5t27 -35t29.5 -12.5t22 -2q53 0 96.5 13.5t73.5 29.5q37 20 64 45v279q0 29 -6 64.5t-26.5 66t-58.5 51t-100 20.5q-61 0 -119.5 -17.5t-105.5 -39.5q-53 -25 -102 -55l-84 194q51 37 115 66 q53 25 128.5 45t167.5 20q94 0 173 -27.5t135.5 -77.5t87 -124t30.5 -166v-598h-235v168q-29 -53 -70 -94q-35 -35 -87 -63.5t-122 -28.5q-123 0 -194.5 80.5t-71.5 207.5v84q0 16 -5 20.5t-24 4.5h-61z" />
<glyph unicode="&#xe0a;" horiz-adv-x="876" d="M45 762v213h102q98 0 163 -19.5t104 -51.5t55 -75t16 -88q0 -100 -63 -163q-8 -8 -21.5 -22.5t-27 -35t-23.5 -47.5t-10 -59v-105q0 -70 29.5 -94.5t68.5 -24.5q49 0 77 15.5t41 40t17.5 55.5t4.5 64q0 109 -23 157.5t-37 48.5v213q20 0 35.5 29t26 80t14.5 117.5 t4 144.5h233q0 -131 -21.5 -221t-48 -145.5t-51 -81t-30.5 -27.5q4 -2 25.5 -16.5t45 -51.5t43 -98t19.5 -156q0 -168 -98.5 -271t-282.5 -103q-92 0 -153.5 29.5t-98.5 77.5t-52 107.5t-15 118.5v97q0 29 7 63.5t19.5 68.5t27.5 64.5t32 48.5q12 16 31.5 41t19.5 41 t-35 18.5t-70 2.5h-100z" />
<glyph unicode="&#xe0b;" horiz-adv-x="876" d="M45 764v209q23 0 43.5 -16.5t36.5 -36.5q18 -23 33 -54q18 31 43 54q23 20 53.5 36.5t71.5 16.5q39 0 69.5 -18.5t52 -48t31.5 -67.5t10 -77t-9 -68.5t-23.5 -54.5t-31.5 -46.5t-34 -41.5q-10 -16 -30.5 -53t-20.5 -92v-97q0 -72 34 -94t87 -22q37 0 60.5 15t35.5 39.5 t16.5 54.5t4.5 58q0 109 -23 160t-37 51v213q23 0 38 29t24.5 80t13.5 117.5t4 144.5h233q0 -131 -20 -221t-47 -145.5t-51.5 -81t-30.5 -27.5q4 -2 24.5 -16.5t44 -50t43 -97t19.5 -156.5q0 -70 -22.5 -137t-66.5 -121.5t-110.5 -87t-152.5 -32.5q-109 0 -177.5 30.5 t-106.5 78.5t-51 107.5t-13 118.5v76q0 78 21.5 140.5t55.5 115.5q6 8 19.5 23.5t27 32t23.5 31t10 22.5q0 10 -13 20t-30 -6l-23.5 -23.5l-23.5 -23.5q-12 -14 -24 -27q-20 18 -41 33q-16 12 -36 22.5t-34 10.5z" />
<glyph unicode="&#xe0c;" horiz-adv-x="1529" d="M45 721q41 76 102 135q53 51 135.5 94t200.5 43q82 0 161 -23.5t140.5 -66.5t99.5 -105.5t38 -138.5v-366q14 -25 36 -43q20 -16 55.5 -28.5t88.5 -12.5q25 0 46 6t36.5 24.5t25 55.5t9.5 98v580h235v-641q0 -53 -17.5 -114.5t-52 -113t-86 -85t-120.5 -33.5 q-78 0 -127.5 27.5t-77.5 62.5q-35 39 -51 92v-168h-236v618q0 78 -55.5 120t-147.5 42q-59 0 -93 -10t-52 -20q-23 -12 -29 -29l127 -103q-23 -18 -39 -43q-14 -23 -25.5 -52t-11.5 -68v-199q0 -16 6.5 -27.5t22.5 -13.5h62v-215h-95q-31 0 -69.5 3t-73.5 21.5t-58.5 56.5 t-23.5 107v267q0 39 5 68.5t11 51.5q8 25 17 43q-35 29 -60 52q-23 18 -41 33.5t-18 17.5z" />
<glyph unicode="&#xe0d;" horiz-adv-x="1538" d="M45 721q41 76 102 135q53 51 135.5 94t198.5 43q82 0 161 -23.5t140.5 -66.5t99.5 -105.5t38 -138.5v-321q0 -45 14 -70.5t36.5 -38t49.5 -15.5t51 -3q35 0 62.5 11t46.5 28q23 18 37 41v682h235l8 -756q2 -123 -34.5 -213t-95 -150.5t-132.5 -89t-143 -28.5 q-82 0 -145.5 19.5t-106.5 41.5q-51 27 -88 62l47 127q25 -29 57 -52q29 -20 69 -35.5t93 -15.5q98 0 164.5 68.5t66.5 198.5v18q-18 -53 -51 -94q-29 -35 -71.5 -64.5t-108.5 -29.5q-78 0 -134 30.5t-93 81.5t-55.5 117.5t-18.5 136.5v272q0 51 -21.5 83t-52.5 49.5 t-65.5 23.5t-59.5 6q-59 0 -93 -10t-52 -20q-23 -12 -29 -29l127 -103q-23 -18 -39 -40q-14 -20 -25.5 -51t-11.5 -72v-199q0 -16 2 -27.5t19 -13.5h70v-215h-123q-57 0 -95 15.5t-62 41t-33 59.5t-9 72v267q0 39 5 68.5t11 51.5q8 25 19 43q-35 29 -60 52q-23 18 -40 33.5 t-17 17.5z" />
<glyph unicode="&#xe0e;" horiz-adv-x="997" d="M45 721q39 76 100 135q53 51 133 94t195 43q70 0 148.5 -23.5t145.5 -66.5t111 -105.5t44 -138.5v-817q0 -25 -7.5 -69.5t-34 -88.5t-79.5 -78t-146 -34q-47 0 -89 17.5t-74 39.5q-37 25 -70 58q-49 -33 -105 -58q-47 -23 -111.5 -40t-133.5 -17v213q70 0 133 18.5 t110 40.5q55 27 105 62q25 -29 51 -51q23 -20 54.5 -36t70.5 -16q63 0 76.5 30t13.5 93v692q0 78 -57.5 120t-149.5 42q-53 0 -86 -10t-51 -20q-23 -12 -33 -29l127 -103q-18 -14 -33 -36q-12 -20 -22 -50t-10 -77v-267q0 -57 -13.5 -93t-40 -57.5t-65.5 -29.5t-90 -8h-111 v209h62q16 2 17 13t1 28v205q0 39 5 68.5t11 51.5q8 25 17 43q-35 29 -60 52q-23 18 -41 33.5t-18 17.5z" />
<glyph unicode="&#xe0f;" horiz-adv-x="997" d="M45 721q37 76 100 135q53 51 138.5 94t208.5 43q78 0 154.5 -23.5t138 -66.5t99.5 -105.5t38 -138.5v-817q0 -23 -7.5 -67.5t-34 -89.5t-78.5 -79t-143 -34q-33 0 -60.5 17.5t-49.5 39.5q-25 25 -49 60l-78 -84l-70 82q-51 -33 -102 -58q-43 -23 -92 -40t-86 -17v213 q59 0 110 19.5t90 43.5q43 27 80 64l68 -88l78 110q2 -4 14 -27.5t32.5 -51t45 -49t49.5 -21.5q10 0 28.5 3t18.5 36v794q0 68 -51 115t-143 47q-59 0 -94.5 -10t-55.5 -20q-23 -12 -33 -29l135 -103q-20 -14 -36 -36q-14 -20 -25.5 -50t-11.5 -77v-267q0 -78 -41 -133 t-142 -55h-137v209h62q16 2 17 12t1 21v217q0 39 5 68.5t11 50.5q8 23 17 40q-35 29 -60 52q-23 18 -41 33.5t-18 17.5z" />
<glyph unicode="&#xe10;" horiz-adv-x="964" d="M25 793q29 55 84 100q47 37 126.5 68.5t202.5 31.5q45 0 95.5 -11t87.5 -26q41 14 52 46t11 88h234q0 -41 -11.5 -82t-30 -75t-44 -57.5t-54.5 -31.5q37 -35 63.5 -77t44 -87t26 -90t8.5 -84q0 -141 -44.5 -237.5t-115 -157t-159.5 -86t-181 -25.5h-94l-78 305 q-6 16 -9 24.5t-20 8.5h-57v213h104q23 0 53.5 -3t60.5 -20.5t56.5 -52.5t40.5 -96l39 -164q20 0 50 20.5t56.5 59.5t45 92t18.5 119q0 88 -29.5 141t-69.5 83t-82 39t-67 9q-88 0 -149.5 -30.5t-100.5 -65.5q-45 -43 -73 -96zM70 -215q72 0 121 22.5t79 51.5q35 33 56 73 l75 -106l76 106q0 -2 13.5 -25.5t34 -50t45 -49t46.5 -22.5q6 0 17.5 6t11.5 23v153h234v-166q0 -33 -12.5 -72.5t-40 -74.5t-73.5 -58.5t-116 -23.5q-47 0 -78 17.5t-49 39.5q-23 25 -35 60l-74 -80l-75 72q-35 -33 -74 -56q-35 -20 -82 -36.5t-100 -16.5v213z" />
<glyph unicode="&#xe11;" horiz-adv-x="991" d="M45 764v209q23 0 43.5 -16.5t36.5 -36.5q18 -23 33 -54q23 31 47 54q23 20 50.5 36.5t61.5 16.5q45 0 82 -31t37 -119q31 47 68 84q33 33 76 59.5t96 26.5q61 0 106 -34.5t75 -88t44 -116t14 -115.5v-639h-235v578q0 61 -8 98t-20.5 55.5t-29 24.5t-30.5 6 q-74 0 -126 -53.5t-84 -127t-46 -149.5t-14 -121v-14q0 -6 -1.5 -11t1.5 -7v-279h-236v262q0 111 28.5 190.5t63.5 138t63.5 97.5t28.5 70q0 4 -4 13t-20 9q-12 0 -26.5 -13t-29.5 -30q-16 -18 -32 -41q-14 18 -31 33q-16 12 -35.5 23.5t-46.5 11.5z" />
<glyph unicode="&#xe12;" horiz-adv-x="1523" d="M45 496q0 121 23.5 213t63.5 154.5t91 94t105 31.5q23 0 52.5 -22.5t53.5 -51.5q29 -33 58 -71q25 41 49 74q23 29 49 51t55 22q53 0 102.5 -28.5t86 -74.5t59 -102.5t22.5 -109.5v-383q18 -25 46 -43q23 -16 56.5 -29.5t80.5 -13.5q27 0 48 6t36.5 25.5t22.5 56.5t7 98 v580h236v-641q0 -53 -13.5 -114.5t-43 -114t-76.5 -87t-117 -34.5q-78 0 -131 29.5t-88 66.5q-39 43 -64 98v-176h-235v676q0 53 -25.5 78.5t-38.5 25.5q-16 0 -36.5 -22.5t-40.5 -48.5q-23 -31 -47 -70q-27 39 -50 70q-20 27 -41.5 49t-38.5 22q-10 0 -24 -7t-26.5 -35.5 t-21.5 -85t-9 -156.5q0 -35 3 -86.5t19 -100.5t50 -84t96 -35q23 0 45 7.5t45 17.5t49 25v-211q-16 -14 -39 -25q-18 -10 -45 -16t-55 -6q-84 0 -158 32.5t-128 98t-86 161t-32 222.5z" />
<glyph unicode="&#xe13;" horiz-adv-x="1527" d="M45 721q39 76 100 135q51 51 130 93t188 44q70 0 149.5 -17.5t148 -57t114 -103t45.5 -156.5v-266q0 -61 7 -97t23.5 -55.5t43 -24.5t65.5 -5q35 0 64.5 12.5t50.5 28.5q23 18 43 41v680h235v-973h-235v168q-16 -53 -52 -94q-29 -35 -78 -63.5t-126 -28.5 q-80 0 -133.5 34.5t-85 87t-45 114t-13.5 114.5v286q0 49 -21.5 80t-53 49.5t-69.5 25.5t-71 7q-53 0 -85 -10t-48 -20q-20 -12 -29 -29l127 -103q-23 -18 -39 -43q-14 -23 -25.5 -52t-11.5 -68v-199q0 -16 6.5 -27.5t22.5 -13.5h62v-215h-82q-31 0 -72 3t-78 21.5 t-62.5 56.5t-25.5 107v267q0 39 5 68.5t11 51.5q8 25 17 43q-35 29 -60 52q-23 18 -40 33.5t-17 17.5z" />
<glyph unicode="&#xe14;" horiz-adv-x="991" d="M45 496q0 123 38 216t99.5 155.5t141 94t165.5 31.5q90 0 168 -23.5t135.5 -66.5t90 -105.5t32.5 -138.5v-659h-235v625q0 49 -17.5 79.5t-45 48t-61.5 22.5t-67 5q-23 0 -57.5 -10t-68 -41t-58 -87t-24.5 -146q0 -41 4 -94.5t21.5 -100.5t50 -79t92.5 -32q35 0 61.5 7.5 t42.5 17.5q20 10 35 25v-209q-14 -14 -37 -25q-18 -10 -46 -17t-65 -7q-96 0 -168.5 39.5t-124 109.5t-77 163t-25.5 202z" />
<glyph unicode="&#xe15;" horiz-adv-x="991" d="M45 496q0 121 23.5 213t63.5 154.5t91 94t105 31.5q23 0 51.5 -22.5t52.5 -51.5q29 -33 60 -71q25 41 49 74q23 29 49 51t55 22q55 0 104.5 -28.5t86 -74.5t58 -102.5t21.5 -109.5v-676h-235v676q0 57 -27.5 80.5t-42.5 23.5q-12 0 -31.5 -22.5t-39.5 -48.5 q-23 -31 -47 -70q-27 39 -50 70q-20 27 -41.5 49t-38.5 22q-10 0 -24 -8t-27.5 -36.5t-22.5 -86t-9 -157.5q0 -154 45 -228t125 -74q23 0 45 7.5t45 17.5t49 25v-211q-20 -14 -43 -25q-23 -10 -51.5 -16t-67.5 -6q-84 0 -153.5 37.5t-121 106.5t-79 163t-27.5 207z" />
<glyph unicode="&#xe16;" horiz-adv-x="997" d="M45 721q41 76 105 135q53 51 135 94t198 43q82 0 161 -23.5t140.5 -66.5t99.5 -105.5t38 -138.5v-491q0 -29 -20.5 -57.5t-43.5 -53.5q-27 -29 -61 -57h-111v618q0 84 -55.5 123t-147.5 39q-59 0 -93 -10t-52 -20q-23 -12 -29 -29l127 -103q-23 -18 -39 -43 q-14 -23 -25.5 -52t-11.5 -68v-197q0 -16 2.5 -28.5t18.5 -12.5l70 -2v-215l-162 2q-61 2 -109.5 46t-48.5 140v267q0 39 5 68.5t11 51.5q8 25 17 43q-35 29 -60 52q-23 18 -41 33.5t-18 17.5z" />
<glyph unicode="&#xe17;" horiz-adv-x="980" d="M76 0v973h235v-170q20 53 58 94q31 35 82 65.5t129 30.5q70 0 129 -30.5t103 -82t68.5 -115t24.5 -126.5v-639h-235v578q0 31 -4 63.5t-21.5 59t-52.5 44t-96 17.5q-41 0 -75 -14.5t-59 -30.5q-29 -20 -51 -45l-2 -672h-233z" />
<glyph unicode="&#xe18;" horiz-adv-x="919" d="M45 717q0 70 33 121t90 85.5t134 52t167 17.5q86 0 156.5 -16t122.5 -35q59 -23 106 -49v-225q-41 33 -96 57q-47 23 -120 40t-169 17q-31 0 -64.5 -1t-61.5 -7t-45 -19.5t-17 -37.5q0 -31 44 -40t109.5 -16.5t143 -20.5t143 -50t109.5 -104.5t44 -184.5 q0 -57 -23.5 -113.5t-71.5 -102.5t-119.5 -74.5t-167.5 -28.5q-70 0 -146 11t-139.5 47t-104.5 100.5t-41 170.5v72h240v-72q0 -47 15.5 -71.5t40 -35.5t54 -12.5t58.5 -1.5q27 0 56.5 5.5t55 17.5t42 34.5t16.5 57.5q0 63 -44 92t-109.5 43.5t-143.5 23.5t-143.5 32.5 t-109.5 74t-44 146.5z" />
<glyph unicode="&#xe19;" horiz-adv-x="980" d="M76 334v618h235v-579q0 -61 21.5 -94t49.5 -48.5t52.5 -17.5t30.5 -2q47 0 86 14.5t65 30.5q31 20 54 45l2 651h233v-952h-235v170q-27 -53 -64 -94q-35 -35 -86 -64.5t-129 -29.5q-70 0 -127 31.5t-99 81.5t-65.5 112.5t-23.5 126.5z" />
<glyph unicode="&#xe1a;" horiz-adv-x="960" d="M76 346v627h235v-635q0 -70 36 -109t75 -39h86q55 0 98 39t43 109v637h236v-629q0 -59 -20.5 -123.5t-61.5 -118t-103.5 -88t-146.5 -34.5h-143q-88 0 -151.5 34.5t-103.5 88t-59.5 118t-19.5 123.5z" />
<glyph unicode="&#xe1b;" horiz-adv-x="960" d="M76 346v627h235v-635q0 -70 38 -109t83 -39h86q51 0 91 39t40 109v901h236v-893q0 -59 -19.5 -123.5t-62.5 -118t-109.5 -88t-158.5 -34.5h-144q-80 0 -138 34.5t-98 88t-59.5 118t-19.5 123.5z" />
<glyph unicode="&#xe1c;" horiz-adv-x="1138" d="M76 719q0 133 58.5 193.5t144.5 60.5h129v-215l-76 2q-20 0 -24.5 -10.5t-2.5 -32.5q4 -90 12.5 -155.5t18.5 -110.5q10 -53 24 -89l132 318h110l129 -318q18 35 39 115q16 66 32.5 184.5t26.5 311.5l234 2q-4 -236 -37 -416t-72 -305q-45 -145 -100 -254h-154l-147 342 l-147 -342h-154q-51 96 -88 209q-35 98 -61.5 228t-26.5 282z" />
<glyph unicode="&#xe1d;" horiz-adv-x="1134" d="M76 719q0 129 53 191.5t139 62.5h138v-215l-76 2q-16 0 -21.5 -7.5t-5.5 -33.5q0 -92 8 -157.5t19 -110.5q12 -53 28 -89l131 318h111l129 -318q25 53 45 166q16 96 31.5 267.5t15.5 443.5h238q0 -332 -32 -564.5t-71 -383.5q-45 -176 -102 -291h-156l-147 342l-148 -342 h-153q-51 96 -88 211q-33 98 -59.5 228t-26.5 280z" />
<glyph unicode="&#xe1e;" horiz-adv-x="1216" d="M14 973h234l166 -570l116 570h156l117 -570l166 570h233l-280 -973h-203l-111 528l-114 -528h-197z" />
<glyph unicode="&#xe1f;" horiz-adv-x="1292" d="M14 973h234l166 -570l116 570h158l115 -570l241 836h234l-356 -1239h-203l-111 510l-108 -510h-203z" />
<glyph unicode="&#xe20;" horiz-adv-x="997" d="M45 721q41 76 100 135q51 51 130 94t190 43q94 0 177 -23.5t145.5 -66.5t98.5 -105.5t36 -138.5v-491q0 -29 -19.5 -58.5t-42.5 -54.5q-27 -29 -61 -55h-113v618q0 88 -63.5 125t-157.5 37q-41 0 -70.5 -10t-48.5 -20q-23 -12 -37 -29l127 -103q-18 -14 -33 -36 q-12 -20 -22 -50t-10 -77v-267q0 -39 -13.5 -72.5t-37 -60t-52 -42t-59.5 -15.5l-158 -2v217h62q16 2 18 13.5t2 27.5l-4 201q-2 39 4 68.5t12 51.5q8 25 19 43q-35 29 -60 52q-23 18 -41 33.5t-18 17.5z" />
<glyph unicode="&#xe21;" horiz-adv-x="980" d="M76 0v973h235v-633q27 -25 56 -43q25 -16 55.5 -29.5t60.5 -13.5q57 0 93 12.5t56.5 35t29 52t8.5 64.5v555h235v-641q0 -49 -19.5 -109.5t-59.5 -114t-99 -90t-137 -36.5t-131 28.5t-86 63.5q-39 41 -62 94v-168h-235z" />
<glyph unicode="&#xe22;" horiz-adv-x="929" d="M45 301q0 72 38 120t85 77q53 33 123 49q-63 10 -113 35q-43 23 -77.5 60.5t-34.5 98.5q0 57 21.5 103.5t56 80t78.5 52t89 18.5t84 -7t68 -15q35 -8 63 -21v-225q-33 14 -61 27q-25 10 -52.5 18t-45.5 8h-16.5t-22 -3t-19.5 -11t-8 -25q0 -33 16.5 -50t47 -26.5 t71.5 -11.5t90 -2v-211q-131 0 -188 -43t-57 -96q0 -37 14 -59.5t36.5 -32.5t49.5 -13t49 -3q80 0 134 37.5t54 107.5v635h236v-627q0 -59 -21.5 -123.5t-70.5 -118t-130 -88t-202 -34.5q-109 0 -182.5 27.5t-118.5 72.5t-64.5 102.5t-19.5 116.5z" />
<glyph unicode="&#xe23;" horiz-adv-x="837" d="M76 59v197q43 -18 90 -33q41 -12 92 -22.5t104 -10.5q74 0 119 20.5t45 90.5q0 41 -33.5 61.5t-83 35t-108.5 31.5t-108.5 50t-83 89.5t-33.5 152.5q0 53 25.5 102t71.5 87t110.5 60.5t144.5 22.5q70 0 123 -12t92 -29q43 -18 78 -41v-227q-29 25 -70 47q-35 18 -90 33.5 t-131 15.5q-119 0 -119 -71q0 -31 34 -48.5t83 -33t108.5 -35t108.5 -55t83 -92t34 -144.5q0 -49 -14.5 -105.5t-54.5 -104.5t-111.5 -78.5t-184.5 -30.5q-72 0 -132 11t-101 27q-51 16 -88 39z" />
<glyph unicode="&#xe24;" horiz-adv-x="997" d="M45 721q41 76 105 135q53 51 134 94t191 43q86 0 167 -23.5t142.5 -66.5t99.5 -105.5t38 -138.5v-919q0 -29 -19.5 -57.5t-42.5 -53.5q-27 -29 -61 -57h-113v1046q0 92 -64.5 127t-156.5 35q-47 0 -78 -10t-47 -20q-23 -12 -31 -29l125 -103q-20 -18 -37 -43 q-14 -23 -25.5 -52t-11.5 -68v-197q0 -16 2.5 -28.5t18.5 -12.5l70 -2v-213h-140q-82 0 -131 47t-49 139v267q0 39 5 68.5t11 51.5q8 25 17 43q-35 29 -60 52q-23 18 -41 33.5t-18 17.5z" />
<glyph unicode="&#xe25;" horiz-adv-x="909" d="M45 270q0 76 37 135.5t93 99.5t124 60.5t129 20.5q70 0 103.5 1t50.5 5q16 4 16 8v31q0 84 -46 115.5t-128 31.5q-70 0 -122 -25.5t-87 -54.5q-41 -35 -70 -77l-86 206q37 45 91 82q45 31 113.5 57.5t160.5 26.5q111 0 188.5 -29.5t126.5 -83t72 -126t23 -156.5v-598 h-236v393q-6 -4 -27 -8q-16 -4 -51 -5t-96 -1q-53 0 -98 -26.5t-45 -82.5q0 -31 25.5 -55.5t86.5 -24.5q23 0 45.5 5.5t40.5 13.5q23 8 41 20v-221q-12 -8 -33 -14q-18 -6 -46.5 -10t-69.5 -4q-70 0 -129.5 19t-103.5 56t-68.5 91.5t-24.5 123.5z" />
<glyph unicode="&#xe26;" horiz-adv-x="997" d="M45 721q37 76 98 135q53 51 136 94t206 43q70 0 147 -23.5t141.5 -66.5t106.5 -105.5t42 -138.5v-919q0 -29 -19.5 -57.5t-42.5 -53.5q-27 -29 -61 -57h-113v1046q0 63 -50 112.5t-142 49.5q-59 0 -94 -10t-56 -20q-23 -12 -35 -29l127 -103q-18 -14 -33 -36 q-12 -20 -22 -50t-10 -77v-267q0 -78 -48.5 -131t-123.5 -55l-148 -2v213h62q16 2 18 13.5t2 27.5l-4 201q-2 39 4 68.5t12 51.5q8 25 19 43q-35 29 -60 52q-23 18 -41 33.5t-18 17.5z" />
<glyph unicode="&#xe27;" horiz-adv-x="905" d="M45 129l86 215q33 -43 74 -78q35 -29 86 -52.5t112 -23.5q29 0 67 15.5t73 51.5t58.5 92.5t23.5 135.5q0 80 -23.5 133.5t-57.5 85t-72 45t-69 13.5q-61 0 -112 -19.5t-88 -42.5q-43 -27 -76 -61l-82 205q37 41 90 74q45 29 108.5 52t149.5 23q100 0 186.5 -37.5 t149 -105.5t97 -161t34.5 -204t-33.5 -204t-94 -159.5t-144.5 -103t-182 -36.5q-86 0 -152 22.5t-113 50.5q-53 33 -96 74z" />
<glyph unicode="&#xe28;" horiz-adv-x="1001" d="M76 0v659q0 78 38 140.5t96 105.5t130 65.5t141 22.5q35 0 80 -5t76 -15q41 16 48 42.5t7 74.5h234q0 -68 -22.5 -132.5t-69.5 -87.5q27 -20 44 -47.5t28.5 -57.5t15.5 -58.5t4 -47.5v-659h-236v659q0 53 -58.5 88t-150.5 35q-47 0 -78.5 -13t-53 -31.5t-31 -40 t-9.5 -38.5v-147q29 20 66 39q31 16 71.5 28.5t90.5 12.5v-232q-66 0 -109 -11t-70 -23q-31 -14 -49 -33v-293h-233z" />
<glyph unicode="&#xe29;" horiz-adv-x="960" d="M76 346v627h235v-621q0 -80 37 -121t88 -41h86q57 0 88 38t35 108l4 84h-184v158h184l-2 397h238v-397h61v-158h-63l-4 -74q-10 -174 -96.5 -269t-227.5 -95h-143q-70 0 -131.5 26.5t-106.5 74.5t-71.5 114.5t-26.5 148.5z" />
<glyph unicode="&#xe2a;" horiz-adv-x="929" d="M45 270q0 76 32 135.5t81 98.5t111.5 59.5t123.5 20.5q70 0 111 2t63 6q25 4 37 8v31q0 84 -50 115.5t-124 31.5q-70 0 -122 -25.5t-87 -54.5q-41 -35 -69 -77l-84 213q35 43 88 79q45 29 113.5 54.5t160.5 25.5q29 0 61.5 -3t57.5 -9q27 10 41 20.5t20 22.5t7 28.5 t1 37.5h236q0 -123 -137 -187q57 -43 91 -124t34 -181l-2 -598h-236v393q-16 -4 -45 -8q-25 -4 -64.5 -6t-101.5 -2q-25 0 -44 -11.5t-33.5 -27.5t-21.5 -34.5t-7 -33.5q0 -31 25.5 -55.5t86.5 -24.5q23 0 45.5 6.5t40.5 16.5q23 8 41 23l2 -228q-20 -8 -43 -14 q-18 -6 -41.5 -10t-46.5 -4q-70 0 -133 17t-112.5 54t-78 91.5t-28.5 127.5z" />
<glyph unicode="&#xe2b;" horiz-adv-x="925" d="M76 0v973h235v-303l310 303h321l-350 -342q41 -8 88 -27.5t88 -57.5t68.5 -100.5t27.5 -154.5v-291h-237l-2 262q0 63 -17.5 107.5t-42 74t-52.5 44t-50 18.5l-152 -154l-2 -352h-233z" />
<glyph unicode="&#xe2c;" horiz-adv-x="1292" d="M20 973h234l166 -570l117 570h157l115 -570l115 373q8 23 8 49q0 39 -17.5 70t-40.5 51q-25 23 -55 41q61 27 111 64q41 33 76.5 80t35.5 108h242q0 -78 -38 -126t-83 -77q-53 -33 -119 -49q31 -10 54 -26q20 -16 38.5 -40t22.5 -63q2 -25 -2 -50.5t-10 -48t-11.5 -38.5 t-7.5 -23l-200 -698h-203l-111 510l-108 -510h-203z" />
<glyph unicode="&#xe2d;" horiz-adv-x="987" d="M45 621q14 104 68 186q20 35 52 68.5t77 59.5t103 42t132 16q135 0 224.5 -50t142.5 -126t75.5 -165t22.5 -167q0 -119 -35 -213t-96 -158.5t-146 -98t-188 -33.5q-96 0 -175 29.5t-134 80.5t-86 121t-31 149q0 104 44 146.5t106 42.5h250v-213l-127 2q-16 4 -25.5 -5 t-5.5 -26q12 -39 34.5 -62.5t50.5 -35.5t55.5 -16.5t45.5 -4.5q111 0 169.5 67t58.5 228q0 78 -19.5 134.5t-52.5 92.5t-74 52t-84 16q-63 0 -102 -25.5t-62 -54.5q-27 -37 -41 -79h-227z" />
<glyph unicode="&#xe2e;" horiz-adv-x="987" d="M45 623q16 102 68 184q20 35 52 68.5t76 59.5t101 42t131 16q33 0 77 -3t91 -21q41 12 47 41.5t6 79.5h226q0 -35 -10.5 -70t-28 -64.5t-40 -52t-46.5 -31.5q78 -74 112.5 -176t34.5 -211q0 -119 -35 -213t-96 -158.5t-146 -98t-188 -33.5q-96 0 -175 29.5t-134 80.5 t-86 121t-31 149q0 33 6 67t22.5 61.5t45.5 44t72 16.5h254v-213h-125q-16 0 -25.5 -7t-5.5 -24q8 -35 30.5 -57.5t50 -35.5t55.5 -18.5t48 -5.5q106 0 167 67t61 228q0 78 -19.5 134.5t-52.5 92.5t-75 53t-87 17q-59 0 -98 -25.5t-62 -54.5q-27 -37 -41 -79h-227z" />
<glyph unicode="&#xe2f;" horiz-adv-x="917" d="M45 973h231q10 -43 20.5 -77t27 -57.5t42 -35.5t68.5 -12q61 0 111.5 46t72.5 136h224v-627q0 -111 -25.5 -178.5t-68.5 -105t-100.5 -50t-121.5 -12.5v213q20 0 36 1t26 13.5t14 41t4 83.5v285q-23 -16 -51 -29q-25 -10 -62.5 -19t-86.5 -9q-90 0 -154 36.5t-107 93 t-66.5 126t-33.5 137.5z" />
<glyph unicode="&#xe30;" horiz-adv-x="659" d="M76 332v119h225v-72q0 -27 16.5 -38t69.5 -11h197l-88 -207h-185q-129 0 -182 57.5t-53 151.5zM76 782v109h225v-74q0 -27 16.5 -38t69.5 -11h197l-88 -207h-195q-66 0 -110 17.5t-69.5 47t-35.5 69.5t-10 87z" />
<glyph unicode="&#xe31;" d="M-555 1335v109h229v-68q0 -27 16.5 -38t69.5 -11h385l-88 -201h-385q-43 0 -84 8.5t-72.5 31t-51 63.5t-19.5 106z" />
<glyph unicode="&#xe32;" horiz-adv-x="806" d="M45 670v211q35 31 76 55q35 23 85 40t109 17q86 0 161 -26.5t132.5 -74.5t90 -117.5t32.5 -156.5v-618h-235v598q0 53 -18.5 88t-46.5 56.5t-58.5 29.5t-57.5 8q-47 0 -95 -17.5t-87 -37.5q-47 -25 -88 -55z" />
<glyph unicode="&#xe33;" horiz-adv-x="806" d="M-502 1337q0 45 16.5 85t46 69t67.5 46t81 17q92 0 154.5 -62t62.5 -155q0 -43 -17.5 -80.5t-46 -67.5t-68.5 -46.5t-85 -16.5q-43 0 -81 16.5t-67.5 46.5t-46 67.5t-16.5 80.5zM-356 1337q0 -27 17 -44t44 -17q25 0 43.5 17.5t18.5 43.5q0 25 -18.5 43.5t-43.5 18.5 q-27 0 -44 -18.5t-17 -43.5zM45 670v211q35 31 76 55q35 23 85 40t109 17q86 0 161 -26.5t132.5 -74.5t90 -117.5t32.5 -156.5v-618h-235v598q0 53 -18.5 88t-46.5 56.5t-58.5 29.5t-57.5 8q-47 0 -95 -17.5t-87 -37.5q-47 -25 -88 -55z" />
<glyph unicode="&#xe34;" d="M-831 1126l88 193h624v-193h-712z" />
<glyph unicode="&#xe35;" d="M-831 1126l88 203h389v115h235v-318h-712z" />
<glyph unicode="&#xe36;" d="M-831 1126l86 203h249q-2 8 1 15.5t6 15.5q16 59 70 92t110 33q51 0 87 -17.5t59.5 -45t33.5 -60.5t10 -62q0 -43 -19.5 -74.5t-48 -54t-62.5 -34t-60 -11.5h-522zM-340 1305q0 -12 9 -21.5t22 -9.5q12 0 21 9t9 22q0 12 -9 21t-21 9t-21.5 -9t-9.5 -21z" />
<glyph unicode="&#xe37;" d="M-831 1126l88 203h225v115h158v-115h61v115h180v-318h-712z" />
<glyph unicode="&#xe38;" d="M-412 -152h117q98 0 159.5 -46t61.5 -144v-188h-235v124q0 18 -12.5 34t-32.5 16h-58v204z" />
<glyph unicode="&#xe39;" d="M-698 -152h141q33 0 67.5 -10t63.5 -28.5t47.5 -44t18.5 -58.5t5 -43t17 -10q16 0 22.5 9t6.5 42v143h235v-200q0 -29 -9 -64t-39 -65.5t-84 -51t-146 -20.5q-121 0 -180.5 43t-59.5 102q0 18 -12 34t-33 16h-61v206z" />
<glyph unicode="&#xe3a;" d="M-309 -152h235v-215h-235v215z" />
<glyph unicode="&#xe3f;" horiz-adv-x="899" d="M76 0v1098h196v168h230l-2 -176q59 -10 108 -36t83 -64t52.5 -84t18.5 -93q0 -80 -41 -146.5t-123 -88.5q98 -16 161.5 -80t63.5 -166q0 -61 -23.5 -116.5t-66.5 -99.5t-102.5 -74t-128.5 -38v-174h-230v170h-196zM311 209h99q51 0 85.5 13.5t55 31.5t29 39.5t8.5 38.5 q0 25 -8.5 49.5t-31 43.5t-61 32.5t-100.5 13.5h-76v-262zM311 684h64q10 0 34.5 2t51 12.5t46 32t19.5 62.5q0 33 -17 51t-41 27.5t-47.5 11.5t-33.5 2h-76v-201z" />
<glyph unicode="&#xe40;" horiz-adv-x="438" d="M76 188v785h235v-719q0 -16 2 -27.5t19 -13.5h61v-213h-139q-31 0 -62.5 9t-57 30.5t-42 57.5t-16.5 91z" />
<glyph unicode="&#xe41;" horiz-adv-x="847" d="M76 188v785h235v-719q0 -16 2 -27.5t19 -13.5h61v-213h-157q-61 0 -110.5 47t-49.5 141zM485 188v785h236v-719q0 -16 2 -27.5t18 -13.5h62v-213h-156q-61 0 -111.5 47t-50.5 141z" />
<glyph unicode="&#xe42;" horiz-adv-x="546" d="M143 1198q0 92 84 157.5t236 65.5h305v-209h-158q-109 0 -170 -8t-61 -35q0 -23 6 -47t14.5 -57t14.5 -79t6 -109v-625q0 -16 2 -27.5t18 -13.5h62v-211h-160q-31 0 -59.5 15.5t-50 41t-35 59.5t-13.5 72v689q0 63 -6 111t-14 85t-14.5 66.5t-6.5 58.5z" />
<glyph unicode="&#xe43;" horiz-adv-x="692" d="M0 1264q33 51 74 90q35 35 84 62.5t108 27.5q61 0 123 -17.5t109 -54.5t76.5 -96t29.5 -143q0 -47 -6 -75t-13 -57.5t-13.5 -68.5t-6.5 -107v-563q0 -16 2 -27.5t19 -13.5h61v-221h-149q-74 0 -121 55.5t-47 132.5v637q0 61 6 104.5t13 78t13.5 64.5t6.5 61 q0 8 -3.5 24.5t-14.5 32.5t-31.5 28.5t-53.5 12.5q-41 0 -74.5 -26.5t-58.5 -57.5q-29 -37 -53 -84z" />
<glyph unicode="&#xe44;" horiz-adv-x="751" d="M0 1212v211q35 0 69.5 -18.5t63.5 -41t48.5 -43t23.5 -24.5q14 35 39 62q23 23 55.5 43t85.5 20q63 0 108.5 -30.5t75 -77.5t43 -106.5t13.5 -116.5v-834q0 -16 2 -27.5t18 -13.5h62v-215h-144q-84 0 -129 55.5t-45 132.5v902v41.5t-3 40t-13.5 29.5t-30.5 11 q-18 0 -38.5 -25.5t-39.5 -53.5q-23 -35 -41 -78q-18 43 -49 78q-27 29 -70 54t-104 25z" />
<glyph unicode="&#xe45;" horiz-adv-x="806" d="M45 670v211q33 31 76 55q37 23 90 40t123 17q78 0 149.5 -26.5t127 -74.5t88 -117.5t32.5 -156.5v-878q0 -29 -19.5 -57.5t-41.5 -53.5q-27 -29 -62 -57h-112v1026q0 57 -21.5 93t-50.5 56.5t-59.5 26.5t-49.5 6q-47 0 -95 -17.5t-87 -37.5q-47 -25 -88 -55z" />
<glyph unicode="&#xe46;" horiz-adv-x="929" d="M45 700q0 53 19.5 105.5t53.5 94.5t82 67.5t105 25.5q23 0 47.5 -23.5t46.5 -51.5q25 -33 50 -74q25 41 51 74q23 29 49 52t49 23q61 0 109.5 -28.5t81 -71.5t49 -95.5t16.5 -97.5v-960q0 -29 -19.5 -57.5t-41.5 -53.5q-27 -29 -62 -57h-113v1087q0 76 -15 98.5t-28 22.5 q-10 0 -30.5 -26.5t-42.5 -57.5q-25 -37 -53 -82q-31 45 -56 82q-23 31 -43 57.5t-28 26.5q-12 -2 -21 -10q-8 -8 -14 -23.5t-6 -46.5q0 -35 11 -57t25 -39q16 -18 37 -31l-78 -188q-66 20 -116 59q-43 35 -79 95.5t-36 160.5z" />
<glyph unicode="&#xe47;" d="M-793 1315q0 109 65.5 159t176.5 54l164 4q45 0 85 20.5t71 44.5q37 29 65 66v-225q-31 -12 -65 -21q-31 -8 -70 -14t-86 -6h-143q-61 0 -82 -27t-21 -55q0 -18 15.5 -40t46.5 -22q23 0 37 14.5t24 30.5q10 20 18 48h56q4 -27 12 -48q6 -16 16.5 -30.5t22.5 -14.5 q31 0 46 26t15 67h158q0 -41 -13.5 -80t-39 -70t-62 -50.5t-84.5 -19.5q-23 0 -42 13.5t-33 29.5q-16 18 -29 43q-12 -25 -31 -43q-16 -16 -38.5 -29.5t-53.5 -13.5q-84 0 -142.5 51.5t-58.5 137.5z" />
<glyph unicode="&#xe48;" d="M-309 1126v318h235v-318h-235z" />
<glyph unicode="&#xe49;" d="M-606 1239v205h233q31 0 56.5 -21.5t25.5 -52.5q0 -16 12.5 -29.5t28.5 -11.5l334 -2l-84 -201h-395q-33 0 -63.5 13.5t-30.5 58.5q0 27 -12.5 34t-24.5 7h-80z" />
<glyph unicode="&#xe4a;" d="M-750 1253q0 49 19.5 85t49.5 59.5t64.5 36t65.5 12.5q23 0 40 -14.5t30 -30.5q12 -20 22 -45q8 23 23 43q10 16 28.5 30.5t40.5 14.5q25 0 53.5 -8.5t53 -21.5t41 -30.5t16.5 -35.5q0 -16 6.5 -18.5t16.5 -2.5h264l-84 -201h-250q-29 0 -47 14.5t-29.5 34t-15.5 41 t-4 37.5q0 23 -10.5 42.5t-30.5 19.5q-27 0 -32 -19.5t-5 -42.5h-70q0 20 -3 41t-33 21q-16 0 -28.5 -19.5t-12.5 -42.5t14 -45t31 -41q20 -23 47 -41h-203q-20 18 -35 41q-12 18 -22.5 41t-10.5 45z" />
<glyph unicode="&#xe4b;" d="M-412 1182v204h103v58h235v-60h101v-202h-101v-56h-235v56h-103z" />
<glyph unicode="&#xe4c;" d="M-565 1126v88q0 37 20.5 78t54 75t75.5 55.5t85 21.5h191l-88 -205h-37q-43 0 -53.5 -19.5t-10.5 -58.5v-35h-237z" />
<glyph unicode="&#xe4d;" d="M-502 1335q0 45 16.5 85t46 69t67.5 46t81 17q92 0 154.5 -62.5t62.5 -154.5q0 -43 -17.5 -80.5t-46 -67.5t-68.5 -46.5t-85 -16.5q-43 0 -81 16.5t-67.5 46.5t-46 67.5t-16.5 80.5zM-356 1335q0 -27 17 -44t44 -17q25 0 43.5 17.5t18.5 43.5q0 25 -18.5 43.5t-43.5 18.5 q-27 0 -44 -18.5t-17 -43.5z" />
<glyph unicode="&#xe4e;" d="M-584 1249q0 55 22.5 93t56.5 61.5t74 34t77 10.5q0 33 22.5 56.5t58 39t81 23.5t92.5 8v-117q-59 0 -99.5 -44t-40.5 -152q-43 0 -79.5 -15.5t-36.5 -62.5q0 -29 16 -45q8 -8 18 -13h-215q-10 10 -28.5 41t-18.5 82z" />
<glyph unicode="&#xe4f;" horiz-adv-x="1017" d="M76 414q0 90 33.5 169t93 137t137.5 92t168 34t170 -34t138 -92t92 -137t34 -169t-34 -169t-92 -137.5t-138 -92t-170 -33.5t-168 33.5t-137.5 92t-93 137.5t-33.5 169zM233 414q0 -55 21.5 -105.5t59.5 -88.5t88.5 -59.5t105.5 -21.5q57 0 107.5 21.5t87 59.5t58 88 t21.5 106q0 57 -21.5 107t-58 87t-87 58.5t-107.5 21.5q-55 0 -105.5 -21.5t-88.5 -58.5t-59.5 -87t-21.5 -107zM322 414q0 39 14 72.5t39.5 59t59.5 40t73 14.5q78 0 132 -54t54 -132q0 -39 -14 -73t-40 -59.5t-59.5 -40t-72.5 -14.5q-78 0 -132 54.5t-54 132.5z" />
<glyph unicode="&#xe50;" horiz-adv-x="980" d="M45 412q0 88 36 167.5t96.5 140t140 95.5t169.5 35t171 -35t142.5 -95.5t98.5 -140t37 -167.5q0 -90 -38 -169t-101.5 -137.5t-146.5 -92t-173 -33.5t-168 33.5t-137 92t-93 137.5t-34 169zM279 414q0 -47 16 -89t45 -73t67.5 -49.5t84.5 -18.5q43 0 81.5 18.5t68.5 49.5 t46.5 73t16.5 89t-16.5 88t-46.5 71.5t-68.5 49t-81.5 18.5q-45 0 -84 -18.5t-68 -49t-45 -71.5t-16 -88z" />
<glyph unicode="&#xe51;" horiz-adv-x="980" d="M45 487q0 72 34 137.5t93 114.5t137 79t168 30q98 0 182 -34t145.5 -95.5t96.5 -146.5t35 -189q0 -135 -57.5 -223t-138.5 -140.5t-168 -74t-144 -21.5h-21.5h-39t-40 1t-22.5 1l60 201h8q43 0 99 13.5t107.5 44t86 79.5t34.5 119q0 63 -18 111.5t-49 80t-72 47t-84 15.5 q-47 0 -84 -14.5t-61.5 -36t-37.5 -48t-13 -51.5q0 -35 7 -58t18 -36.5t21.5 -18.5t16.5 -5q23 0 26 21.5t3 55.5v39h235v-88q0 -27 -9 -67.5t-38 -78.5t-80 -65.5t-137 -27.5q-43 0 -95 18.5t-97.5 58t-76 102t-30.5 150.5z" />
<glyph unicode="&#xe52;" horiz-adv-x="1196" d="M14 1047v208h31q76 0 141.5 -36.5t113.5 -89t75.5 -112t27.5 -104.5v-544q0 -102 41 -140.5t88 -38.5h269q53 0 83.5 33t30.5 96v205q0 27 -1 57.5t-6 57.5t-17 44t-35 17q-20 0 -36.5 -12t-28.5 -29q-14 -18 -29 -41q-12 23 -27 41q-12 16 -28.5 28.5t-34.5 12.5 q-25 0 -40.5 -27.5t-15.5 -62.5q0 -31 20.5 -46t49.5 -22t61.5 -7h55.5v-211q-76 0 -141.5 5t-113.5 32.5t-76 86t-28 162.5q0 27 9.5 69t33 81t61.5 67.5t95 28.5q31 0 52.5 -17.5t37.5 -37.5q18 -25 31 -56q16 31 39 56q18 20 44.5 37.5t57.5 17.5q66 0 113 -34t76.5 -83 t43 -107.5t13.5 -107.5v-221q0 -152 -96.5 -236.5t-253.5 -84.5h-326q-45 0 -95 21.5t-93 63.5t-72 101t-29 135v617q0 33 -7 56t-25.5 38.5t-52 24t-87.5 8.5z" />
<glyph unicode="&#xe53;" horiz-adv-x="1187" d="M45 418q0 94 20.5 173t61.5 136t104.5 89t147.5 32q61 0 104 -36t72 -79q33 -51 51 -115q18 63 51 115q27 43 70 79t104 36q66 0 123.5 -31t99.5 -87t65.5 -136t23.5 -176q0 -98 -20.5 -176t-45.5 -131q-29 -63 -65 -111h-221q33 55 57 123q23 57 41 133t18 162 q0 117 -31.5 169t-76.5 52q-59 0 -78 -73.5t-19 -227.5h-217q0 141 -18 221t-78 80q-12 0 -29.5 -7t-35 -29.5t-28.5 -66.5t-11 -118q0 -115 43 -171.5t116 -56.5q39 0 80 11q23 6 45 12v-188q-12 -14 -30 -23q-16 -10 -40 -16t-57 -6q-63 0 -133.5 25.5t-129 78.5 t-96.5 136t-38 198z" />
<glyph unicode="&#xe54;" horiz-adv-x="1155" d="M45 408q0 70 13.5 144.5t48 137t96 102t159.5 39.5h314q33 0 62.5 6.5t52 23t37 48t14.5 82.5v269l237 -5l-4 -356q0 -74 -27.5 -126t-71.5 -84t-97.5 -46t-106.5 -14h-326q-86 0 -125.5 -63.5t-39.5 -162.5q0 -104 32.5 -148t124.5 -44l254 -2q-57 31 -102 74 q-39 37 -70 92t-31 131h242q0 -129 63.5 -212t182.5 -83h102v-211h-706q-68 0 -128.5 33t-104.5 88t-69.5 129t-25.5 158z" />
<glyph unicode="&#xe55;" horiz-adv-x="1159" d="M45 403q0 70 14.5 146t50 138.5t95 103t151.5 40.5h23q0 4 -1 11.5t-1 15.5q0 84 58.5 142.5t142.5 58.5t142 -58.5t58 -142.5v-10q31 16 45.5 35.5t19.5 44t4 56.5t-1 73v203h237v-342q0 -76 -22.5 -130.5t-61 -90t-91 -52t-111.5 -16.5h-338q-86 0 -130 -63.5 t-44 -162.5q0 -98 30.5 -145t116.5 -47h266q-57 29 -102 72q-39 37 -70.5 92t-31.5 131h241q0 -66 21.5 -119t54.5 -93t73 -61.5t77 -21.5h122v-211h-706q-70 0 -130.5 37t-105.5 95t-70.5 130t-25.5 141zM516 844q0 -27 17.5 -44.5t44.5 -17.5h6q23 4 39 20.5t16 41.5 t-18.5 43t-42.5 18q-27 0 -44.5 -18t-17.5 -43z" />
<glyph unicode="&#xe56;" horiz-adv-x="1298" d="M14 1047v210h43q115 0 196 -37.5t136 -103t92 -157t62 -195.5q29 25 67 45q35 16 85 31.5t116 15.5q111 0 193.5 -37t138 -97t83 -136t27.5 -152q0 -84 -29.5 -166t-86 -145.5t-138 -102t-188.5 -38.5q-92 0 -164 33.5t-125 86t-88 113.5t-55 117h239q29 -70 80.5 -106 t112.5 -36q23 0 58.5 12.5t68.5 41t56.5 75t23.5 115.5q0 53 -19.5 93t-49 65.5t-66.5 38t-72 12.5q-47 0 -81 -17.5t-58.5 -48t-40 -70.5t-25.5 -85h-211q-35 160 -67.5 277.5t-73.5 194.5t-98.5 115t-141.5 38z" />
<glyph unicode="&#xe57;" horiz-adv-x="1564" d="M45 418q0 94 21.5 171t60.5 132t95.5 85t123.5 30q59 0 101 -35t70 -78t41 -81t15 -44q0 4 13.5 42t40 81t68.5 79t102 36q68 0 123 -29t95 -83t62.5 -132t22.5 -174v-69.5t-2 -46t-7.5 -37t-15.5 -42.5q47 6 61.5 45t14.5 131v543q0 86 29.5 145.5t80 97.5t118 55 t143.5 17h28v-210q-53 0 -85.5 -6.5t-50 -19.5t-23 -34.5t-5.5 -54.5v-617q0 -76 -31.5 -134t-78.5 -98t-100.5 -61.5t-98.5 -21.5h-342q35 55 64 123q25 57 45 133t20 162q0 117 -20.5 161t-67.5 44q-59 0 -82.5 -59.5t-23.5 -182.5h-195q0 109 -27.5 175.5t-78.5 66.5 q-14 0 -29.5 -4.5t-29 -25t-21.5 -61t-8 -114.5q0 -115 48 -171.5t103 -56.5q16 0 40 4.5t46 10.5q25 6 49 14v-194q-27 -14 -51 -23q-23 -8 -46.5 -14t-39.5 -6q-84 0 -154.5 34.5t-122 95t-80 139.5t-28.5 167z" />
<glyph unicode="&#xe58;" horiz-adv-x="1161" d="M45 418q0 80 23.5 154.5t69.5 132t112.5 92t152.5 34.5h281q33 0 62.5 6.5t52 24t37 49t14.5 82.5v267h235v-312q0 -100 -30.5 -163.5t-78.5 -98.5t-105.5 -48t-110.5 -13h-260q-117 0 -165 -58.5t-48 -154.5q0 -115 32.5 -167t63.5 -52q35 0 62.5 36.5t43.5 81.5 q20 53 35 121q29 -68 64 -121q29 -45 67.5 -81.5t83.5 -36.5q51 0 80 27.5t29 117.5v53h235v-53q0 -66 -14 -130.5t-52 -114.5t-104.5 -80.5t-173.5 -30.5q-57 0 -97 21.5t-67 49.5q-31 33 -51 74q-14 -41 -37 -74q-20 -29 -49.5 -50t-77.5 -21q-55 0 -111 31.5t-101.5 89 t-74 138.5t-28.5 177z" />
<glyph unicode="&#xe59;" horiz-adv-x="1380" d="M45 418q0 94 28.5 173t71.5 136t93.5 89t93.5 32q84 0 137 -42t92 -95q2 90 49 147t131 57q55 0 98.5 -22.5t79 -49t63.5 -49t50 -22.5q29 0 32 65.5t3 172.5v250h238v-250q0 -63 -6.5 -141t-32 -146t-78.5 -114t-146 -46q-59 0 -106 23.5t-84 50.5t-65.5 48.5 t-49.5 14.5q-4 -2 -19.5 -10t-15.5 -45q0 -14 3 -20l32 -113q16 -53 53 -180t95 -332h-232l-157 551q-12 43 -48 69.5t-59 26.5q-12 0 -31.5 -8t-36 -32.5t-28.5 -69.5t-12 -119q0 -113 42 -170.5t95 -57.5q16 0 38.5 5.5t43.5 13.5q23 8 47 20v-200q-23 -14 -53.5 -30.5 t-94.5 -16.5q-68 0 -132 34.5t-113.5 95t-79 139.5t-29.5 167z" />
<glyph unicode="&#xe5a;" horiz-adv-x="1245" d="M45 973h231q10 -43 21.5 -77t27 -57.5t40 -35.5t63.5 -12q66 0 117 46t73 136h224v-627q0 -74 -12.5 -136.5t-46 -109.5t-95 -73.5t-162.5 -26.5v213h40.5t24.5 14.5t12 51t3 112.5v246q-18 -16 -49 -29q-27 -10 -66.5 -19t-97.5 -9q-84 0 -145.5 36.5t-102.5 93 t-65.5 126t-34.5 137.5zM934 0v975l235 -2v-973h-235z" />
<glyph unicode="&#xe5b;" horiz-adv-x="1576" d="M76 401q0 82 25.5 162t78.5 142.5t135 100.5t197 38q68 0 119 -16.5t91 -42t68.5 -59.5t49.5 -69q47 -82 61 -186h-229q-10 47 -31 84q-18 31 -49 57.5t-80 26.5q-35 0 -70.5 -14.5t-64.5 -44t-46.5 -73.5t-17.5 -106q0 -57 20.5 -98t51.5 -66.5t66.5 -37t68.5 -11.5 q39 0 74 19.5t63 44.5q33 27 60 63l106 -100l82 104l96 -102l91 109q23 -39 45 -70q20 -27 45.5 -48.5t54.5 -21.5q45 0 45 39q0 25 -13.5 49.5t-29.5 42.5q-20 23 -43 43h225q20 -16 39 -38q16 -20 28.5 -49t12.5 -70q0 -31 -14 -70t-43 -72.5t-74 -56t-106 -22.5 q-39 0 -69 21.5t-52 49.5q-25 33 -43 74l-84 -102l-94 102l-80 -102l-107 102q-25 -41 -57 -74q-29 -29 -68 -51t-90 -22q-104 0 -186 37.5t-139.5 97t-88 135.5t-30.5 151z" />
<glyph unicode="&#x2000;" horiz-adv-x="926" />
<glyph unicode="&#x2001;" horiz-adv-x="1853" />
<glyph unicode="&#x2002;" horiz-adv-x="926" />
<glyph unicode="&#x2003;" horiz-adv-x="1853" />
<glyph unicode="&#x2004;" horiz-adv-x="617" />
<glyph unicode="&#x2005;" horiz-adv-x="463" />
<glyph unicode="&#x2006;" horiz-adv-x="308" />
<glyph unicode="&#x2007;" horiz-adv-x="308" />
<glyph unicode="&#x2008;" horiz-adv-x="231" />
<glyph unicode="&#x2009;" horiz-adv-x="370" />
<glyph unicode="&#x200a;" horiz-adv-x="102" />
<glyph unicode="&#x2010;" horiz-adv-x="663" d="M76 389v193h512v-193h-512z" />
<glyph unicode="&#x2011;" horiz-adv-x="663" d="M76 389v193h512v-193h-512z" />
<glyph unicode="&#x2012;" horiz-adv-x="663" d="M76 389v193h512v-193h-512z" />
<glyph unicode="&#x2013;" horiz-adv-x="878" d="M76 389v193h727v-193h-727z" />
<glyph unicode="&#x2014;" horiz-adv-x="1267" d="M76 389v193h1116v-193h-1116z" />
<glyph unicode="&#x2018;" horiz-adv-x="387" d="M76 737v168q0 61 27.5 111.5t62.5 85.5q39 41 90 74h258q-57 -33 -102 -74q-39 -35 -70 -85t-31 -112v-168h-235z" />
<glyph unicode="&#x2019;" horiz-adv-x="389" d="M-123 737q55 35 98 76q37 35 69 85t32 110v168h237v-168q0 -59 -28.5 -109.5t-63.5 -85.5q-39 -41 -90 -76h-254z" />
<glyph unicode="&#x201c;" horiz-adv-x="694" d="M76 737v168q0 61 27.5 111.5t62.5 85.5q39 41 90 74h225q-51 -33 -90 -74q-35 -35 -62.5 -85t-27.5 -112v-168h-225zM393 737v168q0 61 31 111.5t70 85.5q45 41 102 74h225q-57 -33 -102 -74q-39 -35 -70 -85t-31 -112v-168h-225z" />
<glyph unicode="&#x201d;" horiz-adv-x="696" d="M-123 737q55 35 98 76q37 35 69 85t32 110v168h225v-168q0 -59 -31.5 -109.5t-70.5 -85.5q-45 -41 -101 -76h-221zM213 737q51 35 90 76q35 35 63.5 85t28.5 110v168h226v-168q0 -59 -29 -109.5t-64 -85.5q-39 -41 -90 -76h-225z" />
<glyph unicode="&#x2022;" horiz-adv-x="616" d="M76 487q0 49 18.5 92.5t50 75t74.5 50t92 18.5q47 0 89 -18.5t73 -50t49.5 -74.5t18.5 -93q0 -47 -18.5 -89t-49.5 -72.5t-73 -49t-89 -18.5q-49 0 -92 18.5t-74.5 49t-50 72.5t-18.5 89z" />
<glyph unicode="&#x2026;" horiz-adv-x="1247" d="M76 0v213h235v-213h-235zM506 0v213h235v-213h-235zM936 0v213h235v-213h-235z" />
<glyph unicode="&#x202f;" horiz-adv-x="370" />
<glyph unicode="&#x205f;" horiz-adv-x="463" />
<glyph unicode="&#x20ac;" horiz-adv-x="1159" d="M76 330v155h104l-2 52v30.5t2 30.5h-104v156h135q41 100 96 168.5t124 110.5t147.5 59.5t164.5 17.5q133 0 212 -19.5t128 -41.5l-82 -205q-59 29 -128.5 44t-135.5 15q-90 0 -159.5 -39t-106.5 -110h373v-156h-426q-2 -16 -3 -30.5t-1 -30.5v-26.5t2 -25.5h387v-155 h-336q31 -45 68.5 -73t75.5 -43t71 -20.5t55 -5.5q78 0 140.5 27t121.5 57l82 -200q-59 -35 -147 -62.5t-219 -27.5q-84 0 -165 22.5t-148.5 67.5t-116.5 109.5t-70 148.5h-139z" />
<glyph unicode="&#x2122;" horiz-adv-x="813" d="M76 1004v55h260v-55h-96v-314h-64v314h-100zM362 690v369h72l115 -268l123 268h65v-369h-55v266l-125 -266h-20l-113 266v-266h-62z" />
<glyph unicode="&#x25fc;" horiz-adv-x="829" d="M0 0v829h829v-829h-829z" />
<glyph horiz-adv-x="964" d="M37 786q25 57 78 103q45 39 122.5 71.5t200.5 32.5q45 0 95.5 -11t87.5 -26q41 14 52 46t11 88h234q0 -41 -11.5 -82t-30 -75t-44 -57.5t-54.5 -31.5q37 -35 63.5 -77t44 -87t26 -90t8.5 -84q0 -141 -44.5 -237.5t-115 -157t-159.5 -86t-181 -25.5h-94l-78 305 q-6 16 -9 24.5t-20 8.5h-57v213h104q23 0 53.5 -3t60.5 -20.5t56.5 -52.5t40.5 -96l39 -164q20 0 50 20.5t56.5 59.5t45 92t18.5 119q0 88 -29.5 141t-69.5 83t-82 39t-67 9q-88 0 -149.5 -30.5t-100.5 -65.5q-45 -43 -73 -96z" />
<glyph horiz-adv-x="1523" d="M45 721q41 76 102 135q51 51 129 94t185 43q88 0 171 -23.5t147.5 -66.5t102.5 -105.5t38 -138.5v-321q0 -70 20.5 -109t75.5 -39h86q53 0 81.5 39t28.5 109v635h236v-627q0 -59 -17.5 -123.5t-55.5 -118t-101.5 -88t-155.5 -34.5h-164q-70 0 -121 28.5t-84.5 77.5 t-50 115.5t-16.5 142.5v272q0 78 -57.5 120t-149.5 42q-59 0 -92 -10t-49 -20q-20 -12 -27 -29l127 -103q-20 -14 -37 -36q-14 -20 -26.5 -50t-12.5 -77l-2 -199q0 -16 2 -27.5t19 -13.5h72v-215h-123q-55 0 -93 14.5t-62 41t-34 60.5t-10 72v267q0 39 5 68.5t11 51.5 q8 25 19 43q-35 29 -60 52q-23 18 -40 33.5t-17 17.5z" />
<glyph d="M-905 1317q0 211 239 211h123q47 0 86 18.5t70 40.5q35 25 65 60l3 -207q-29 -12 -66 -21q-31 -8 -71 -14t-87 -6h-102q-61 0 -82 -26.5t-21 -55.5q0 -18 9.5 -40t31.5 -22q23 0 36.5 14.5t19.5 30.5q8 20 8 46h39q4 -25 12 -46q6 -16 17.5 -30.5t31.5 -14.5 q14 0 26.5 11.5t20 26t11.5 29.5t4 24h155q0 -96 -52 -158t-144 -62q-23 0 -41.5 13.5t-32.5 29.5q-16 20 -29 45q-8 -25 -20 -43q-12 -16 -31.5 -29.5t-50.5 -13.5q-78 0 -128 51.5t-50 137.5z" />
<glyph d="M-465 1649l2 204h223q31 0 56.5 -21.5t25.5 -51.5q0 -16 12.5 -28.5t28.5 -12.5h242l-88 -203h-277q-47 0 -74.5 20.5t-27.5 51.5q0 27 -12.5 34t-24.5 7h-86z" />
<glyph d="M-545 1602q0 51 21.5 86.5t52.5 59.5t62.5 34t52.5 10q18 0 33.5 -14.5t25.5 -30.5q13 -20 23 -43q10 23 24 43q12 16 30.5 30.5t41.5 14.5q41 0 79 -23.5t64 -70.5q8 -14 11.5 -17.5t13.5 -3.5l135 -2l-88 -200h-119q-57 0 -76.5 25.5t-19.5 55.5q0 12 -1 30t-6 35 t-14.5 29.5t-23.5 12.5q-16 0 -23.5 -19.5t-7.5 -41.5h-41q0 20 -7 40.5t-24 20.5q-16 0 -28.5 -19.5t-12.5 -41.5q0 -23 11.5 -45.5t25.5 -40.5q16 -23 39 -41h-180q-20 18 -37 41q-14 18 -25.5 40.5t-11.5 45.5z" />
<glyph horiz-adv-x="1683" d="M45 721q41 76 105 135q53 51 134 94t191 43q121 0 227.5 -45t165.5 -127q18 27 48 57.5t71 56.5t96.5 42t126.5 16q78 0 150 -26.5t127 -74.5t88 -117.5t33 -156.5v-878q0 -29 -19.5 -57.5t-42.5 -53.5q-27 -29 -61 -57h-113v1026q0 57 -21.5 93t-50 56.5t-59.5 26.5 t-49 6q-92 0 -145.5 -24.5t-81 -55t-35.5 -56.5t-8 -28v-876q0 -29 -19.5 -57.5t-42.5 -53.5q-27 -29 -61 -57h-113v1046q0 92 -64.5 127t-156.5 35q-47 0 -78 -10t-47 -20q-23 -12 -31 -29l123 -103l-13 -13t-24.5 -32.5t-24 -51t-10.5 -66.5v-197q0 -23 9.5 -32t23 -11 t28.5 -1t30 1v-213h-140q-82 0 -131 47t-49 139v267q0 39 5 68.5t11 51.5q8 25 17 43q-35 29 -60 52q-23 18 -41 33.5t-18 17.5z" />
<glyph horiz-adv-x="1683" d="M45 721q37 76 98 135q53 51 136 94t206 43q49 0 103.5 -12t105.5 -34.5t96.5 -55.5t75.5 -76q18 27 47 58.5t70 58t97.5 44t129.5 17.5q78 0 150 -26.5t127 -74.5t88 -117.5t33 -156.5v-878q0 -29 -19.5 -57.5t-42.5 -53.5q-27 -29 -61 -57h-113v1026q0 57 -21.5 93 t-50 56.5t-59.5 26.5t-49 6q-92 0 -145.5 -24.5t-81 -55t-35.5 -56.5t-8 -28v-876q0 -29 -19.5 -57.5t-42.5 -53.5q-27 -29 -61 -57h-113v1046q0 63 -50 112.5t-142 49.5q-59 0 -94 -10t-56 -20q-23 -12 -35 -29l127 -103q-18 -14 -33 -36q-12 -20 -22 -50t-10 -77v-267 q0 -76 -48.5 -131t-123.5 -55q-37 0 -74 -1t-74 -1v213h62q16 2 18 13.5t2 27.5l-4 201q-2 39 4 68.5t12 51.5q8 25 19 43q-35 29 -60 52q-23 18 -41 33.5t-18 17.5z" />
</font>
</defs>
</svg>
